<svg width="393" height="163" viewBox="0 0 393 163" fill="none" xmlns="http://www.w3.org/2000/svg">
<path d="M98.9958 5.79224C89.0684 -1.25178 75.9726 -0.0707497 64.9046 3.30363C41.7124 10.432 22.3645 28.1054 11.1698 49.364C-0.743129 71.9302 -4.88307 100.57 7.53676 123.811C18.1401 143.636 39.0933 155.952 60.5112 160.972C81.2954 165.822 102.037 160.803 104.15 136.423C104.741 129.801 104.023 123.094 103.516 116.472C103.009 109.892 103.516 102.89 101.784 96.521C101.361 94.9182 100.77 93.484 100.094 92.1765C96.0809 84.5419 88.0545 81.1675 79.3099 79.5647C72.3818 78.2993 62.5389 76.6965 56.329 81.0832C52.696 83.6561 51.5131 88.0428 52.6115 92.303C54.3435 98.9674 59.5818 101.751 65.834 102.764C70.3541 103.481 75.8459 105.379 75.9726 110.736C76.0571 115.038 72.8465 118.918 68.7911 119.846C60.6802 121.702 50.626 115.038 44.7118 110.103C34.7844 101.793 30.8556 90.658 32.8411 77.8775C34.4042 67.67 38.8821 55.1426 47.7111 48.9422C58.3145 41.5185 65.2003 50.081 70.1851 58.9388C75.9304 69.1463 85.8578 75.8529 97.0103 68.3449C106.811 61.7648 110.824 48.9844 111.5 37.7224C112.218 26.0385 109.05 12.9628 98.9958 5.79224Z" fill="black"/>
<path d="M190.286 13.5955C184.878 22.4111 184.878 33.7575 185.681 43.6697C186.948 59.9933 197.087 97.9973 175.5 106.56C163.376 111.41 156.152 98.0395 155.814 88.1272C155.35 74.7562 161.348 61.5539 165.15 49.0265C168.445 38.102 173.853 21.2722 166.84 10.7273C161.56 2.88185 149.055 0.393236 141.198 5.75007C131.524 12.4145 133.34 26.0807 132.96 36.2461C132.453 48.7735 130.637 61.2587 128.736 73.6174C126.159 90.7424 122.441 108.5 124.807 125.836C129.961 163.587 188.934 169.914 206.254 137.731C215.168 121.196 216.393 100.528 218.758 82.2221C221.42 61.7648 227.081 28.2319 214.365 9.88369C207.183 -0.408178 195.989 4.31595 190.286 13.5955Z" fill="black"/>
<path d="M265.439 44.8508C274.521 45.1038 284.744 45.3569 288.884 35.8665C289.138 35.3181 289.349 34.6854 289.56 34.0527C292.433 24.8153 290.067 8.99791 282.041 3.72544C273.634 -1.8423 254.54 -1.12524 246.767 5.58135C239.374 11.9505 238.402 29.666 243.303 37.8489C247.316 44.5555 258.511 44.682 265.439 44.8508Z" fill="black"/>
<path d="M274.859 59.6137C266.495 58.6014 255.511 55.9019 247.823 60.7947C238.824 66.5734 241.021 78.1728 240.599 87.3258C240.134 98.2504 238.698 110.061 235.91 120.648C231.896 135.875 222.222 153.759 245.457 155.615C259.06 156.712 278.957 160.887 287.025 150.132C288.673 147.896 289.856 145.028 290.32 141.358C293.193 119.889 291.081 94.6651 289.349 73.1112C288.588 62.9881 284.533 60.7947 274.859 59.6137Z" fill="black"/>
<path d="M371.176 67.4591C365.346 66.1516 358.883 66.2359 351.955 64.5487C326.566 58.3483 343.928 21.441 357.827 34.7276C364.037 40.675 363.15 53.7929 374.471 52.3588C386.891 50.7981 385.159 35.8243 382.751 27.1774C376.076 3.05058 353.729 -1.04087 331.509 1.40556C305.106 4.31597 308.697 27.0509 309.753 47.3815C310.386 59.6137 311.527 72.9425 323.229 79.8178C336.662 87.7476 368.134 85.0481 362.347 109.428C359.897 119.846 348.449 126.595 341.52 115.502C336.578 107.53 339.704 95.7618 326.524 95.1713C309.626 94.412 307.387 119.973 308.063 131.868C309.499 157.133 327.115 156.29 348.28 157.302C360.995 157.935 374.429 160.381 383.385 149.077C390.946 139.502 392.298 125.794 392.636 114.026C392.932 102.047 392.932 88.4647 386.257 78.0463C381.822 71.2975 376.794 68.7245 371.176 67.4591Z" fill="black"/>
</svg>
