<svg width="373" height="166" viewBox="0 0 373 166" fill="none" xmlns="http://www.w3.org/2000/svg">
<path d="M75.6353 75.2768C72.7503 73.0671 69.2715 71.3674 65.1138 70.39C53.6589 67.7129 41.9919 69.7951 34.6947 58.4492C30.2825 51.6077 27.6521 39.7944 35.3311 34.2277C45.7254 26.7063 51.7922 37.3723 55.6953 45.1912C59.7682 53.3925 70.7139 65.4182 78.7323 53.18C84.3325 44.5963 78.3929 28.3636 73.8534 20.4172C63.2471 1.88991 38.7676 -0.27728 19.5065 1.50746C-5.43966 3.80213 -0.391044 25.1765 2.36661 43.4489C4.40303 56.792 4.57275 71.4524 14.1609 82.0758C25.9976 95.2064 68.2108 91.9344 56.1196 119.13C50.5619 131.666 38.0464 131.539 33.2523 119.003C30.2401 111.099 26.4642 96.6937 14.2457 102.685C5.71821 106.892 5.54849 121.17 4.36058 129.159C2.70599 140.377 1.0514 151.766 11.9972 158.692C26.3369 167.828 53.8286 168.466 68.5927 160.222C87.9386 149.471 88.066 116.411 86.2841 97.2037C85.4356 88.025 82.0415 80.2486 75.6353 75.2768Z" fill="black"/>
<path d="M344.534 46.9707C352.023 46.8854 362.599 47.653 366.618 39.721C371.314 30.467 363.065 19.2087 356.465 13.3663C356.084 13.0252 355.661 12.684 355.238 12.3429C347.538 6.15931 335.396 1.68157 326.808 8.20628C318.219 14.731 316.993 29.4436 321.773 38.5696C326.342 47.1839 336.031 47.0986 344.534 46.9707Z" fill="black"/>
<path d="M372.946 78.8158C372.691 68.7526 370.479 62.6808 364.013 59.8783C361.545 58.8168 358.44 58.2224 354.568 58.095C334.488 57.4156 321.598 60.0057 310.409 78.2214C299.774 95.5029 294.711 116.521 297.987 136.817C301.263 157.029 315.642 169.427 335.977 163.525C367.373 154.396 373.67 106.797 372.946 78.8158Z" fill="black"/>
<path d="M268.849 89.0204C291.506 77.3848 309.375 44.4388 296.892 19.3351C294.712 14.9451 291.549 11.4502 287.744 8.85034C284.41 6.54881 280.519 4.92921 276.373 3.94893C268.379 2.03099 252.006 0.19829 245.123 5.78163C240.079 9.83063 237.129 26.1544 229.905 14.3484C227.383 10.2142 229.306 5.73901 224.861 2.84079C211.48 -5.93913 203.016 19.0794 201.776 27.6036C199.853 40.6882 201.99 54.0286 202.973 67.1132C204.469 87.5286 207.505 107.816 208.83 128.274C209.599 140.506 210.283 157.896 223.749 163.223C233.111 166.931 260.599 167.826 268.293 160.197C282.913 145.664 269.49 129.127 260.812 116.511C251.322 102.616 255.041 96.1381 268.849 89.0204ZM249.954 67.7099C246.192 68.264 243.798 65.7067 244.44 58.7169C245.166 50.9598 242.174 37.79 248.8 31.9935C256.281 25.4299 267.31 32.4623 268.892 40.9013C270.516 49.6812 264.959 57.7792 258.547 63.1068C255.383 65.7067 252.391 67.3689 249.954 67.7099Z" fill="black"/>
<path d="M182.134 125.053C181.195 124.243 180.042 123.645 178.761 123.261C168.941 120.574 159.079 131.367 148.789 125.821C142.257 122.28 143.665 114.005 150.411 110.933C155.62 108.544 162.366 110.208 167.917 110.421C173.51 110.677 178.334 111.019 181.109 106.795C183.586 103.042 182.433 92.0784 179.572 88.7511C173.723 81.9258 164.586 88.8364 156.645 89.5616C146.398 90.5 135.767 83.3761 142.299 75.6977C151.778 64.5213 190.289 78.0865 179.871 55.6057C175.901 47.0741 165.91 45.6664 154.852 45.7517C143.196 45.837 132.308 45.4104 120.738 45.0265C96.1027 44.2587 104.898 60.3408 108.57 71.4745C112.156 82.3097 113.907 93.4861 114.376 104.663C114.803 115.199 114.248 125.778 111.516 136.144C109.552 143.567 105.752 152.952 112.711 159.521C122.446 168.735 144.007 165.578 157.584 165.066C177.139 164.299 188.496 157.729 187.983 142.33C187.685 137.936 186.959 129.106 182.134 125.053Z" fill="black"/>
<path d="M123.97 33.6433C136.275 31.0175 138.454 11.9588 129.653 4.33538C129.482 4.16597 129.311 4.03891 129.097 3.8695C119.484 -3.6269 100.301 4.54715 100.002 17.0411C99.7888 28.2222 114.016 35.761 123.97 33.6433Z" fill="black"/>
<path d="M167.884 32.7793C179.456 30.973 187.484 18.2445 182.488 8.75063C181.42 6.73423 179.797 4.88588 177.449 3.28957C166.688 -4.01986 150.718 1.35719 148.284 14.4217C146.106 25.932 156.824 34.5017 167.884 32.7793Z" fill="black"/>
</svg>
