<svg width="216" height="80" viewBox="0 0 216 80" fill="none" xmlns="http://www.w3.org/2000/svg">
<path d="M209.629 18.3659C208.06 15.3866 204.943 13.667 202.172 12.1455C201.734 11.9049 201.31 11.6713 200.9 11.4378C197.966 9.75356 194.63 8.51515 190.078 7.43242C183.15 5.78355 175.948 5.20326 168.978 4.64421L168.865 4.63713C167.713 4.54513 166.561 4.45314 165.408 4.35406C151.978 3.21472 138.265 3.30672 124.99 3.40579C121.265 3.4341 117.54 3.45533 113.829 3.45533H112.684C104.93 3.44117 96.9068 3.44117 89.2585 6.22938C84.2045 8.06931 80.3663 10.44 77.8499 13.2707C74.0328 17.5733 72.0253 21.1895 71.891 24.0272C71.8628 24.5933 71.4033 24.6995 71.1347 24.7207L69.516 24.8127L69.4665 26.4333C69.4383 27.4099 69.4595 28.3864 69.5372 29.3489C69.5655 29.6815 69.6008 30.0141 69.6432 30.3396C69.6998 30.7784 69.7493 31.1605 69.7493 31.5285C69.7563 32.0522 69.7563 32.5758 69.7493 33.1066V34.0053C69.7493 34.3662 69.7563 34.7271 69.7634 35.088C69.7705 35.5339 69.7846 35.9726 69.7775 36.4185C69.7705 36.744 69.7634 37.0058 69.7139 37.2323C69.6998 37.3172 69.6786 37.4021 69.6574 37.4941C69.5867 37.7984 69.5019 38.1735 69.4807 38.6122C69.4595 39.0722 69.4736 39.518 69.4877 39.9497C69.4948 40.2894 69.5089 40.6362 69.4948 40.9758C69.4665 41.8109 69.4029 42.6672 69.3464 43.3961L69.3039 43.9127C69.2333 44.8043 69.1626 45.696 69.1131 46.5876L69 48.5337L70.9439 48.4559C71.3185 48.4417 71.5305 48.5833 71.6366 48.93C73.9975 56.5587 82.9958 56.4808 89.5908 56.4313C90.9833 56.4171 92.5596 56.403 93.7966 56.4879C93.846 56.495 93.9167 56.5021 94.0935 56.5587L94.2631 56.6011C94.5529 56.6507 94.765 56.8064 94.8427 56.9267C94.9063 57.0257 94.9063 57.1743 94.8498 57.3583C94.6872 57.9032 94.5317 58.4835 94.3691 59.0992C93.6411 61.8025 92.7292 65.1639 90.9126 66.7349C90.8348 66.8057 90.75 66.8694 90.6581 66.9401L86.3109 70.3511L91.7326 70.16C92.807 70.1246 93.6835 70.0043 94.4893 69.785C100.144 68.2493 103.276 64.1661 103.537 57.9811C103.544 57.7759 103.601 57.6414 103.742 57.4857L103.876 57.323C104.067 57.0328 104.315 56.9762 104.477 56.9479C108.386 56.4242 112.592 56.5374 116.663 56.6436C118.332 56.6861 120.056 56.7285 121.739 56.7285C124.58 56.7285 127.471 56.7851 130.292 56.8488C132.964 56.9054 135.727 56.962 138.484 56.9691C138.611 56.9691 138.717 56.9903 138.809 57.0328L139.17 57.2026H182.797C183.37 57.2026 183.935 57.2097 184.515 57.2097C188.501 57.238 192.629 57.2663 196.673 55.8227C199.889 54.6692 203.536 53.36 206.547 51.4493C210.683 48.8168 212.634 45.1582 212.881 39.5747C213.178 32.8731 213.185 25.1382 209.629 18.3659Z" fill="white"/>
<path d="M27.2888 35.4076C27.1193 35.7112 26.7804 35.7323 26.6816 36.1277C26.5333 36.7208 26.964 37.2362 26.7028 37.8363C26.5474 38.1893 26.4909 38.38 26.5474 38.7683C26.5827 39.0154 26.8863 39.7356 26.7734 39.9686C26.2438 39.7426 25.7425 39.4743 25.1848 39.3261C24.1893 39.0719 23.1585 39.0931 22.1841 39.4249C21.2239 39.7497 20.3837 40.3286 19.4588 40.7381C18.9928 40.9499 18.5339 41.07 18.0326 41.1688C17.1501 41.3383 15.9004 42.2985 17.1148 43.1175C17.3972 43.3081 17.7008 43.2728 18.0256 43.2304C18.428 43.174 18.6257 43.1457 18.5763 43.6188C18.5057 44.3036 18.3645 44.9108 18.428 45.6098C18.4704 46.0193 18.541 46.4358 18.6681 46.8312C18.7881 47.2125 19.0846 47.5867 19.134 47.9821C18.894 48.0385 18.4068 47.5231 18.2233 47.389C17.9056 47.1489 17.5031 46.8242 17.0795 46.8806C16.6629 46.9301 16.3523 47.3396 16.2605 47.7208C16.1405 48.2504 16.4017 48.6457 16.8183 48.9423C16.9806 49.0552 17.1783 49.147 17.3266 49.2882C17.5314 49.4789 17.4678 49.5212 17.3125 49.6907C16.9595 50.0719 16.7123 50.5591 17.1148 51.018C17.4607 51.4134 18.1244 51.604 18.5904 51.8017C19.0281 51.9853 19.4588 52.1406 19.9107 52.2748C20.2284 52.3665 20.5955 52.4513 20.878 52.6348C21.3369 52.9384 20.6873 53.0867 20.3908 53.1291C19.9601 53.1926 19.48 53.122 19.0987 53.3621C18.6892 53.6233 18.5269 54.174 18.661 54.6329C19.1058 56.1227 21.9017 54.873 22.8196 54.5906C23.3561 54.4282 24.0551 54.2164 24.3658 53.708C24.4929 53.5033 24.5493 53.3338 24.7753 53.2138C25.0224 53.0796 25.3119 53.0232 25.5802 52.9526C25.9826 52.8467 26.5121 52.7619 26.7169 52.3595C26.8581 52.0841 26.8228 51.7029 26.6816 51.4346C26.5615 51.2086 26.2368 51.0957 26.1803 50.8627C26.4274 50.6579 26.8298 50.6015 27.1193 50.4744C27.437 50.3332 27.7053 50.1708 27.9877 49.959C28.1713 49.8178 28.3196 49.6483 28.5737 49.726C28.8703 49.8178 29.0115 50.2061 29.0821 50.4744C29.2657 51.2016 29.0821 51.9994 29.4069 52.6984C29.8234 53.595 31.1437 53.2985 31.3202 52.3665C31.3838 52.0347 31.2708 51.6817 31.2355 51.3569C31.1931 51.0039 31.1931 50.6438 31.1861 50.2908C31.172 49.6271 30.9884 49.0341 30.9037 48.3774C30.6989 46.7889 30.353 45.1579 29.8164 43.6399C29.5834 42.9833 29.3857 42.3267 29.2515 41.6419C29.188 41.303 29.1244 40.9641 29.0468 40.6252C28.9762 40.3286 28.8491 40.0039 28.9409 39.7003C29.0327 39.4108 29.2445 39.2484 29.2939 38.9307C29.3363 38.6412 29.2374 38.3447 29.1668 38.0693C29.1245 37.8928 29.068 37.7587 29.1456 37.5892C29.2657 37.3421 29.541 37.208 29.6257 36.9255C29.8164 36.2901 29.4704 35.4429 29.3998 34.8004C29.3221 34.1155 29.3574 33.3389 28.5455 33.1271C27.8112 32.9364 27.2111 33.466 27.2464 34.1932C27.2393 34.5462 27.4723 35.0828 27.2888 35.4076ZM28.1572 45.3415C28.1431 45.8781 27.9736 46.5771 27.7618 47.0713C27.4582 47.7773 26.8934 48.3351 26.1944 48.6457C24.7541 49.2882 22.9043 48.9493 21.7252 47.9326C20.1225 46.5559 19.9672 43.5835 21.5275 42.1008C23.3844 40.3286 26.4203 41.6136 27.5359 43.5905C27.8112 44.0918 28.1642 44.7555 28.1572 45.3415Z" fill="#6370C8"/>
<path d="M23.5679 43.2446C23.109 44.0847 23.2502 45.1297 23.2502 46.0475C23.2502 47.396 25.3472 47.4031 25.3472 46.0475C25.3472 45.6521 25.3472 45.2638 25.3472 44.8684C25.3472 44.7484 25.326 44.6143 25.3401 44.5013C25.333 44.5366 25.4742 44.1271 25.3754 44.3036C26.0249 43.1175 24.2104 42.0514 23.5679 43.2446Z" fill="#6370C8"/>
<path d="M45.0738 41.663C44.749 42.475 44.3113 43.2587 44.0289 44.0918C43.6688 45.172 43.4358 46.2946 43.3511 47.4313C43.3017 48.1303 43.1252 49.2529 43.923 49.5989C44.3113 49.7683 44.8196 49.6907 45.1091 49.3871C45.3703 49.1117 45.2221 48.2715 45.6951 48.4622C46.0764 48.6175 46.3447 49.0129 46.6977 49.2176C47.2131 49.5071 47.8415 49.6412 48.4275 49.6907C50.5032 49.8672 52.8402 49.0976 54.2593 47.5514C54.9301 46.8242 55.3819 45.9346 55.6079 44.9743C55.7279 44.4519 55.8056 43.9082 55.8056 43.3716C55.8056 42.948 55.5655 42.2914 56.1515 42.1926C56.9564 42.0584 57.966 42.6303 58.6368 41.896C59.2722 41.1971 58.6862 40.2015 57.8389 40.1309C57.3235 40.0886 56.8364 40.2015 56.328 40.0321C55.8126 39.8626 55.3608 39.5237 54.8807 39.2766C53.864 38.74 52.7414 38.4223 51.5905 38.387C50.941 38.3658 50.2773 38.4012 49.6348 38.5141C49.2818 38.5706 48.9217 38.6412 48.5899 38.7824C48.3781 38.8671 48.1733 39.0436 47.9544 39.086C47.6226 39.1495 47.6014 38.9377 47.5661 38.6624C47.5308 38.38 47.5026 38.1893 47.2978 37.9634C47.1919 37.8434 47.0437 37.7657 46.9731 37.6245C46.8601 37.4127 46.9095 37.1091 46.9236 36.8761C46.9519 36.3678 47.0295 35.8524 46.7542 35.3934C46.62 35.1675 46.4224 35.0051 46.3659 34.7439C46.3164 34.5321 46.3447 34.3132 46.3588 34.1014C46.387 33.5789 46.3659 33 45.8716 32.6752C44.9044 32.0539 44.276 33.6354 44.2619 34.3132C44.2478 34.8992 44.1913 35.5346 44.276 36.1207C44.3466 36.5866 44.7349 36.8055 44.8408 37.2362C44.9679 37.7516 44.6996 38.3023 44.7985 38.8248C44.8832 39.2766 45.2291 39.3402 45.441 39.7003C45.6598 40.0815 45.4198 40.6463 45.2997 41.0347C45.2362 41.2394 45.1585 41.4512 45.0738 41.663ZM46.7824 42.9198C47.5167 41.7689 48.5687 40.8652 49.9808 40.5616C50.5244 40.4416 51.0822 40.4134 51.6399 40.4416C52.0777 40.4628 52.6778 40.4487 53.0167 40.7734C53.6169 41.3594 53.7792 42.4679 53.7439 43.2587C53.7086 44.1836 53.4121 45.1438 52.8684 45.8992C51.7812 47.4102 49.0276 48.1021 47.3755 47.1913C46.9166 46.9371 46.5777 46.5629 46.2317 46.1817C45.8999 45.8216 45.7093 45.5321 45.8575 45.0238C46.0623 44.2824 46.3729 43.5623 46.7824 42.9198Z" fill="#6370C8"/>
<path d="M48.6252 43.1033C48.6322 43.1528 48.6393 43.2022 48.6463 43.2516C48.7664 43.7882 48.6393 44.3107 48.7311 44.8331C48.8864 45.7157 50.1149 46.0334 50.6162 45.2638C50.9833 44.6919 50.8915 43.8588 50.7715 43.2304C50.7009 42.8562 50.6585 42.3832 50.4044 42.0796C49.5783 41.0841 48.5334 42.122 48.6252 43.1033Z" fill="#6370C8"/>
<path d="M42.412 39.0578C41.5648 38.8601 40.4704 40.0886 40.2727 40.837C40.1809 41.1971 40.3222 41.6136 40.188 41.9596C40.0609 42.2843 39.7432 42.3267 39.5243 42.5526C39.256 42.828 39.2631 43.2657 39.2913 43.6258C39.3266 44.1271 39.4325 44.6284 39.5102 45.1226C39.5738 45.5321 39.7079 45.9346 40.1245 46.1181C40.7034 46.3723 41.4518 45.984 41.5789 45.3627C41.6495 45.0167 41.4165 44.6496 41.5224 44.3177C41.6283 43.9788 42.0378 43.9223 42.1861 43.6046C42.3485 43.2587 42.1014 42.8421 42.2496 42.4891C42.3767 42.1996 42.6874 42.1643 42.878 41.9454C43.1604 41.6277 43.0757 41.1829 43.0898 40.7946C43.1039 40.371 43.2451 39.9544 43.0263 39.559C42.8568 39.2696 42.645 39.1142 42.412 39.0578Z" fill="#6370C8"/>
<path d="M33.4877 41.3241C33.3677 41.1476 33.3959 40.9288 33.29 40.724C33.1418 40.4275 32.8452 40.1874 32.6687 39.8979C31.6379 38.1893 29.9928 40.6816 31.0025 41.8113C31.2355 42.0725 31.3696 42.1008 31.419 42.4679C31.4685 42.8209 31.5108 43.1386 31.8285 43.3505C32.0898 43.527 32.3228 43.4493 32.3157 43.8235C32.3086 44.1836 32.1745 44.4307 32.3651 44.7837C32.7181 45.4333 33.7631 45.4121 34.1514 44.8049C34.455 44.3319 34.4479 43.5411 34.4197 42.9904C34.4056 42.6656 34.3561 42.3267 34.2149 42.0372C34.0525 41.7125 33.8125 41.6419 33.5654 41.423C33.5371 41.3877 33.5089 41.3524 33.4877 41.3241Z" fill="#6370C8"/>
<path d="M29.8234 31.1149C29.9857 31.5314 29.7175 32.0045 30.0987 32.3787C30.4588 32.7317 30.7341 32.5693 30.6847 33.1765C30.6282 33.8613 30.5859 35.1322 31.2566 35.5699C31.4261 35.6829 31.6026 35.6829 31.7297 35.8665C31.8285 36.0147 31.8356 36.2336 31.8638 36.396C31.9415 36.8337 32.0262 37.3209 32.2662 37.7022C32.704 38.387 33.6995 38.4364 34.109 37.681C34.3279 37.2715 34.1937 36.8196 34.0666 36.4031C33.8831 35.8171 33.756 35.3087 33.763 34.6945C33.7701 34.2214 33.8972 33.6636 33.5512 33.2683C33.3324 33.0212 32.8876 33 32.7746 32.7034C32.6051 32.2586 32.9935 31.722 32.8381 31.2349C32.7534 30.9666 32.5981 30.776 32.3439 30.6559C32.2168 30.5995 32.0262 30.6206 31.9415 30.4865C31.885 30.3947 31.9485 30.2323 31.9485 30.1335C31.9485 29.9075 31.8991 29.6604 31.765 29.4769C31.652 29.3145 31.4755 29.1944 31.2919 29.138C31.0236 29.0462 30.7483 29.2086 30.4941 29.0956C30.3882 28.8485 30.5788 28.5872 30.6 28.3401C30.6282 28.0083 30.487 27.7259 30.2611 27.4929C28.8843 26.0879 28.3054 28.9614 28.3336 29.7805C28.3477 30.1405 28.376 30.543 28.6372 30.8183C29.0044 31.2349 29.3997 30.9454 29.8234 31.1149Z" fill="#6370C8"/>
<path d="M41.3318 36.2901C41.353 36.0289 41.3741 35.7818 41.5718 35.5982C41.7342 35.4499 41.9601 35.4358 42.1225 35.2734C42.3061 35.0828 42.4049 34.8215 42.4897 34.5744C42.6732 34.0308 42.5885 33.3671 42.8144 32.8446C42.9062 32.6258 43.118 32.4987 43.231 32.301C43.3793 32.0468 43.3934 31.715 43.4075 31.4326C43.4358 30.9242 43.3581 30.3735 43.5558 29.9005C43.6687 29.6251 43.81 29.4274 43.8735 29.1309C43.937 28.8555 43.9865 28.5661 44.0218 28.2837C44.0924 27.7541 44.0783 27.1681 43.5417 26.8928C42.1437 26.1726 42.1578 27.8318 41.7201 28.552C41.3671 29.1238 41.4236 29.6392 41.3953 30.2959C41.3812 30.6065 41.3812 30.9595 41.2541 31.249C41.1482 31.4749 40.9364 31.6373 40.8446 31.8703C40.6893 32.2445 40.8729 32.7317 40.6469 33.0706C40.5128 33.2824 40.2657 33.3036 40.075 33.4377C39.8562 33.586 39.7503 33.7625 39.6655 34.0096C39.4678 34.5744 39.4255 35.2522 39.3337 35.8453C39.2631 36.3042 39.2278 36.7985 39.6444 37.1162C40.0468 37.4198 40.6822 37.3774 41.0564 37.0385C41.2824 36.8267 41.3106 36.5584 41.3318 36.2901Z" fill="#6370C8"/>
<path d="M34.1938 59.0809C33.749 59.0456 33.2759 59.088 32.9935 58.7703C32.7323 58.4808 32.9653 58.2902 33.17 58.0713C33.4736 57.7395 33.5089 57.2947 33.2971 56.8993C32.4075 55.2613 30.1482 57.6336 30.7201 58.9962C31.0378 59.7658 31.6308 60.4789 32.4004 60.8107C32.7393 60.959 33.5018 60.8954 33.6572 61.2696C33.749 61.4815 33.6219 61.8345 33.6219 62.0604C33.6289 62.4699 33.7984 62.837 34.0243 63.1689C34.4338 63.769 35.0128 64.3762 35.6411 64.7363C35.973 64.9269 36.1706 64.9834 36.1848 65.3929C36.1989 65.753 36.1212 66.1766 35.9871 66.5084C35.4646 67.7581 33.6289 68.3441 32.3863 68.3935C31.6661 68.4218 30.9107 68.0617 30.5082 68.8948C30.2753 69.382 30.3882 69.9609 30.8683 70.2434C31.7085 70.7305 32.9864 70.4834 33.876 70.2575C34.7445 70.0315 35.6199 69.6785 36.3825 69.2055C36.6437 69.0431 36.8696 68.7113 37.1379 68.5983C37.4556 68.4571 37.6604 68.7395 37.9146 68.9019C39.3619 69.8127 41.2117 70.2151 42.8851 70.4128C43.6476 70.5046 45.1585 70.8576 45.6174 70.0033C45.8857 69.5091 45.6668 68.7889 45.1655 68.5347C44.8549 68.3794 44.4878 68.4218 44.1489 68.4147C43.6476 68.4006 43.1463 68.3441 42.645 68.2664C41.7978 68.1323 40.9717 67.9064 40.1739 67.6028C39.5949 67.391 38.783 67.2498 38.3805 66.7485C38.0628 66.346 38.0981 65.6329 38.204 65.167C38.3594 64.4821 39.2207 64.002 39.6726 63.5078C40.2021 62.9359 40.5481 62.3499 40.6469 61.5803C40.6752 61.3332 40.6752 61.0296 40.9435 60.9237C41.0564 60.8813 41.1764 60.9166 41.2894 60.9025C41.5789 60.8743 41.8401 60.8037 42.1084 60.6836C42.8074 60.3871 43.4358 59.8293 43.817 59.1727C44.2689 58.389 43.9512 57.5912 43.6193 56.8146C43.344 56.1509 42.7227 55.4237 41.9601 55.3601C41.2259 55.2966 40.5975 55.9391 40.8305 56.6804C41.007 57.2523 41.7272 57.4217 41.8472 58.0148C41.9672 58.6291 41.3812 58.8056 40.887 58.8691C40.2798 58.9468 39.6443 58.8409 39.1784 59.3351C38.6135 59.9282 38.8253 60.7613 38.5147 61.4603C38.3594 61.7992 38.1264 62.0816 37.8722 62.3499C37.6816 62.5546 37.3286 63.0418 37.0603 63.1053C36.7425 63.1759 36.3754 62.7382 36.1918 62.5405C35.8812 62.1945 35.6976 61.8839 35.6976 61.4038C35.6976 60.6695 35.507 59.794 34.8786 59.3139C34.695 59.1445 34.4479 59.1021 34.1938 59.0809Z" fill="#6370C8"/>
<path d="M38.4583 56.984C38.7972 56.9981 39.1431 56.8852 39.3479 56.6451C41.473 54.2022 35.2176 54.8871 37.8581 56.7934C38.0205 56.9063 38.2394 56.9699 38.4583 56.984Z" fill="#6370C8"/>
<path d="M42.3202 50.8274C41.8401 50.0366 40.3363 49.9448 40.1668 51.0886C40.1174 51.4063 40.301 51.5052 40.3786 51.7664C40.4775 52.1053 40.3222 52.0206 40.0962 52.2677C39.9127 52.4654 39.8068 52.7549 39.8068 53.0231C39.8138 53.9975 41.24 54.6894 41.9178 53.8916C42.0873 53.6939 42.1932 53.4185 42.1649 53.1502C42.1296 52.8608 41.8684 52.7407 41.8119 52.5007C41.7131 52.1053 42.3767 51.9994 42.4473 51.5405C42.4968 51.2651 42.4403 51.0251 42.3202 50.8274Z" fill="#6370C8"/>
<path d="M57.6482 47.0571C57.4153 47.2336 57.2105 47.4596 56.9916 47.6502C56.5468 48.0315 56.0808 48.3915 55.5937 48.7093C54.6123 49.3447 53.525 49.8248 52.3953 50.1425C51.7952 50.312 51.181 50.439 50.5596 50.5167C49.7124 50.6226 47.8555 50.7285 48.5686 52.1688C48.7734 52.5854 49.1335 52.6772 49.5641 52.7054C50.0584 52.7407 50.2984 53.0302 50.6938 53.3056C51.188 53.6515 51.7458 53.9057 52.2894 54.1599C53.2426 54.6047 54.3864 55.2683 55.4878 55.2118C55.9608 55.1907 56.3421 54.9577 56.4692 54.4917C56.5327 54.2587 56.5256 53.9975 56.4197 53.7715C56.328 53.5668 56.1303 53.4468 56.0455 53.242C56.2362 53.0443 56.8928 53.0584 57.1611 52.9878C57.5423 52.896 57.9589 52.7619 58.2343 52.4654C58.8132 51.8299 58.326 50.6226 57.4294 50.6791C57.2387 50.6932 56.8292 50.9545 56.6669 50.7568C56.4197 50.4673 57.0481 50.1919 57.1964 50.1072C57.8812 49.7118 58.7991 49.0835 59.2298 48.3986C59.7099 47.629 59.0744 46.5417 58.1283 46.803C57.9518 46.8524 57.7965 46.9442 57.6482 47.0571Z" fill="#6370C8"/>
<path d="M51.8235 59.3704C51.8164 59.0033 51.6328 58.6432 51.3151 58.4526C51.0115 58.269 50.5808 58.2902 50.249 58.4031C49.9454 58.5161 49.7689 58.8126 49.43 58.735C49.2253 58.6855 49.0982 58.5443 48.8793 58.509C48.724 58.4879 48.5475 58.502 48.3992 58.5443C48.0532 58.6291 47.8697 58.9609 47.5166 58.8974C47.3896 58.8762 47.2766 58.7632 47.1424 58.735C46.9801 58.6997 46.7965 58.7279 46.6341 58.7562C45.5962 58.9327 44.5513 60.4153 46.0693 60.8531C46.4082 60.9519 46.8318 60.8813 47.1495 60.7542C47.5025 60.613 47.672 60.4436 48.0603 60.5918C48.4557 60.7472 48.6957 60.7401 49.1052 60.5707C49.3312 60.4789 49.6136 60.1188 49.8395 60.1612C49.9807 60.1894 50.0725 60.3306 50.2066 60.3871C50.3902 60.4648 50.5808 60.4648 50.7715 60.4365C51.0821 60.3871 51.4069 60.2459 51.6117 60.0058C51.7529 59.8223 51.8235 59.5963 51.8235 59.3704Z" fill="#6370C8"/>
<path d="M47.3118 63.2677C47.4883 63.2607 47.6507 63.5007 47.7919 63.5713C48.2226 63.7761 48.8227 63.6349 49.1475 63.296C49.9241 62.4699 49.0204 61.2202 47.9826 61.5662C47.7354 61.6509 47.6013 61.9192 47.3965 61.9898C47.1706 62.0745 47.1636 61.9686 46.9659 61.8486C44.876 60.5636 44.876 64.6304 46.7752 63.6561C46.9517 63.5643 47.093 63.2748 47.3118 63.2677Z" fill="#6370C8"/>
<path d="M53.1014 60.8884C52.9814 60.8813 52.8473 60.9025 52.7131 60.9449C52.5013 61.0155 52.4378 61.1002 52.2895 61.2485C52.0142 61.5238 52.0424 61.4461 51.7035 61.312C49.7478 60.5212 49.7125 63.8325 51.5129 63.2536C51.7741 63.1689 51.88 62.9359 52.0989 62.83C52.3319 62.717 52.353 62.7947 52.5931 62.8794C53.0661 63.0488 53.5815 63.0559 53.9134 62.5899C54.4288 61.8768 53.8922 60.9166 53.1014 60.8884Z" fill="#6370C8"/>
<path d="M50.4891 64.3621C50.3973 64.4044 50.2984 64.4609 50.2066 64.5245C49.9101 64.708 49.896 64.588 49.5853 64.4892C49.3029 64.4044 48.9711 64.4397 48.6887 64.5174C48.5333 64.5598 48.4062 64.6516 48.2509 64.6727C48.0603 64.701 47.905 64.6092 47.7143 64.5809C46.5423 64.4186 46.0552 66.219 47.1707 66.6073C47.4672 66.7061 47.7426 66.6143 48.0321 66.5437C48.4486 66.4449 48.7663 66.5649 49.1829 66.5508C49.4865 66.5367 49.7265 66.4096 49.9595 66.2331C50.2349 66.0213 50.2702 66.0495 50.5879 66.1766C51.1245 66.3955 51.7952 66.1836 52.0211 65.5976C52.1977 65.1458 51.9223 64.6586 51.541 64.4186C51.1527 64.1714 50.8279 64.1997 50.4891 64.3621Z" fill="#6370C8"/>
<path d="M25.8202 60.9237C25.8908 60.9237 25.9684 60.9237 26.0532 60.9166C26.3003 60.8884 26.5474 60.6271 26.7874 60.6413C26.9992 60.6554 27.1263 60.8531 27.2887 60.9519C27.6417 61.1637 28.0795 61.1849 28.4537 61.0084C29.4774 60.5283 28.9479 59.2716 28.0371 59.0315C27.7688 58.9609 27.5782 58.9962 27.317 59.0739C26.9639 59.1798 26.971 59.2574 26.6815 59.0527C24.98 57.8807 24.0974 60.8743 25.8202 60.9237Z" fill="#6370C8"/>
<path d="M28.8844 61.9827C28.7009 61.9474 28.5032 61.9545 28.3125 62.011C28.1501 62.0604 28.016 62.2157 27.8607 62.251C27.5712 62.3146 27.5571 62.1522 27.3523 61.9827C25.6225 60.5848 25.0577 64.7928 27.2605 63.6984C27.5924 63.529 27.5359 63.4937 27.8112 63.7337C28.0231 63.9173 28.1713 64.0091 28.4608 64.0585C28.9197 64.1362 29.4069 64.0585 29.7034 63.6702C30.2894 62.9147 29.6611 62.1169 28.8844 61.9827Z" fill="#6370C8"/>
<path d="M23.9916 61.4744H23.9492C22.6007 61.4744 22.5936 63.5713 23.9492 63.5713H23.9916C25.3401 63.5713 25.3401 61.4744 23.9916 61.4744Z" fill="#6370C8"/>
<path d="M28.849 65.0681C28.7925 65.0399 28.729 65.0116 28.6725 64.9834C27.4652 64.3833 26.4061 66.1907 27.6135 66.7979C27.6699 66.8262 27.7335 66.8544 27.79 66.8826C28.9902 67.4828 30.0563 65.6753 28.849 65.0681Z" fill="#6370C8"/>
<path d="M25.4742 64.5739H25.4318C24.0833 64.5739 24.0833 66.6708 25.4318 66.6708H25.4742C26.8227 66.6708 26.8298 64.5739 25.4742 64.5739Z" fill="#6370C8"/>
<path d="M15.8227 59.2433C15.8015 59.2363 15.7804 59.2292 15.7521 59.2221C15.7521 58.9044 15.8792 58.6714 15.7874 58.3467C15.6674 57.9301 15.5756 57.916 15.8086 57.5418C16.211 56.8993 15.8368 56.2497 15.1802 55.9956C14.6436 55.7908 14.0365 55.7061 13.4716 55.6072C12.5185 55.4378 10.944 55.6779 11.9113 57.0123C12.2078 57.4218 12.8291 57.33 13.0974 57.6759C12.935 57.9513 12.6103 58.0148 12.4973 58.3537C12.3773 58.7067 12.462 59.1515 12.7232 59.4269C12.928 59.6387 13.2175 59.7093 13.4999 59.7446C13.7541 59.7729 14.2059 59.6528 14.4318 59.7517C14.4883 60.0553 14.2977 60.3518 14.3824 60.6695C14.4671 60.9802 14.7072 61.1991 15.0037 61.2979C15.4697 61.4532 16.1475 61.432 16.5146 61.072C16.8253 60.7754 16.8818 60.2812 16.7335 59.8858C16.5641 59.3987 16.2393 59.3563 15.8227 59.2433Z" fill="#6370C8"/>
<path d="M62.1528 54.88C61.2208 54.76 59.724 55.2542 60.0912 56.4051C60.1477 56.5816 60.2889 56.7157 60.3171 56.9063C60.3454 57.0617 60.2536 57.2241 60.2536 57.3794C60.2394 57.69 60.4795 57.9442 60.2324 58.2055C60.0065 58.4384 59.7099 58.509 59.5405 58.8126C58.7709 60.1824 61.009 60.8601 61.6868 59.6811C61.7786 59.5187 61.8421 59.3351 61.8563 59.1515C61.8704 58.975 61.7574 58.7915 61.8068 58.622C61.8916 58.3184 62.3576 58.3114 62.5482 58.0289C62.7741 57.683 62.6258 57.4288 62.6682 57.0758C62.6965 56.8357 62.9224 56.7016 63.0354 56.4898C63.3672 55.8755 63.0495 55.1271 62.3858 54.9436C62.3081 54.9012 62.2305 54.8871 62.1528 54.88Z" fill="#6370C8"/>
<path d="M21.6334 33.7625C21.6404 34.1155 21.8452 34.4827 22.1417 34.6733C22.6854 35.0122 23.5397 34.7862 23.9068 34.2779C23.9986 34.1508 24.0339 33.9814 24.1328 33.8543C24.2457 33.7131 24.3728 33.6848 24.507 33.593C24.8317 33.3742 24.8882 33.0494 25.2977 32.9576C25.5731 32.8941 25.686 32.887 25.8978 32.6964C26.0885 32.5199 26.0744 32.4422 26.3356 32.3716C26.738 32.2657 27.0204 32.3222 27.2605 31.8915C27.4935 31.4749 27.3452 31.0231 27.1616 30.6136C26.971 30.1758 26.8369 29.7169 26.6533 29.2792C26.272 28.3754 24.7258 28.206 24.5846 29.3639C24.5564 29.5757 24.6976 29.7946 24.627 29.9993C24.2175 30.0629 23.9492 29.8581 23.5679 30.1617C23.2149 30.4441 23.2785 30.7618 23.1372 31.1502C23.0455 31.4114 22.8195 31.4396 22.636 31.6514C22.3253 32.0045 22.5654 32.4069 22.3535 32.767C22.1347 33.1271 21.7393 33.0918 21.6475 33.593C21.6334 33.6354 21.6263 33.699 21.6334 33.7625Z" fill="#6370C8"/>
<path d="M47.9402 31.4679C48.0814 31.4679 48.2156 31.4608 48.3497 31.5102C48.5757 31.5879 48.7098 31.8138 48.9357 31.8844C49.3099 32.0115 49.5288 31.6867 49.8607 31.7079C50.0654 31.9197 50.0442 32.2304 50.256 32.4493C50.4184 32.6116 50.6514 32.7105 50.8773 32.7176C51.3292 32.7246 51.5904 32.2304 51.9999 32.2304C52.1906 32.414 52.1411 32.7387 52.3177 32.9435C52.5859 33.2541 52.8613 33.1059 53.2002 33.1906C53.525 33.2753 53.4614 33.4659 53.5744 33.7342C53.6944 34.0237 53.9133 34.179 54.2098 34.2496C54.7182 34.3626 55.5442 34.3909 55.9255 33.9743C56.2009 33.6707 56.2503 33.2047 56.1161 32.8235C56.0596 32.6611 55.9608 32.5057 55.8337 32.3928C55.629 32.2163 55.4807 32.2869 55.2759 32.2021C54.9865 32.0751 55.0853 31.7362 54.9512 31.4749C54.81 31.1996 54.6193 31.1431 54.3299 31.0725C53.9839 30.9878 54.0051 30.9242 53.9415 30.5712C53.9062 30.3665 53.8356 30.1688 53.6803 30.0205C53.0872 29.4486 52.2471 29.9993 51.5834 30.0064C51.6257 29.7451 51.7811 29.5475 51.7669 29.265C51.7528 28.9826 51.6399 28.7073 51.4281 28.5237C51.1951 28.319 50.9268 28.2625 50.6302 28.326C50.3055 28.3966 49.9948 28.7496 49.663 28.7496C49.4088 28.4249 49.5712 28.0436 49.1829 27.74C48.0532 26.8645 47.4389 28.4813 47.1636 29.2933C46.9871 29.8016 46.7329 30.4371 47.0153 30.9525C47.1354 31.1643 47.3542 31.3478 47.5802 31.4326C47.7002 31.4679 47.8202 31.4749 47.9402 31.4679Z" fill="#6370C8"/>
<path d="M65.344 44.2471C65.3158 44.1906 65.2946 44.1271 65.2875 44.0494C65.2522 43.767 65.3158 43.5199 65.1393 43.2587C65.0546 43.1316 64.9416 43.0327 64.8145 42.9621C64.7439 42.9198 64.5745 42.8986 64.525 42.8421C64.3626 42.6444 64.5039 42.2773 64.4121 42.0372C63.8543 40.5687 61.9127 42.0231 62.3504 43.3152C62.4352 43.5623 62.5905 43.7529 62.8094 43.88C63.1765 44.0918 63.1059 44.0706 63.1341 44.5295C63.1553 44.8684 63.3107 45.0591 63.5154 45.3132C63.699 45.5392 63.7343 45.7722 63.8684 46.0193C64.2003 46.6053 64.9769 46.7606 65.4923 46.3299C66.0218 45.8851 66.1701 45.1932 65.7112 44.6566C65.577 44.4872 65.4217 44.4025 65.344 44.2471Z" fill="#6370C8"/>
<path d="M13.3021 47.0925C13.6622 46.7324 13.6622 46.217 13.4222 45.8075C13.5846 45.7157 13.7399 45.6027 13.8528 45.4333C14.1211 45.045 14.1211 44.5013 13.8528 44.113C13.5281 43.647 12.935 43.4352 12.4196 43.7388C12.0878 43.9365 11.8759 44.353 11.9042 44.7484C11.9042 44.7555 11.9042 44.7625 11.9042 44.7696C11.9042 44.7767 11.9042 44.7908 11.9042 44.7978C11.8971 44.8684 11.9112 44.932 11.9254 45.0026C11.3252 45.2779 10.951 46.0899 11.5582 46.6971C11.5017 46.6477 11.5088 46.683 11.5794 46.7889C11.6571 46.8948 11.7347 46.9936 11.8265 47.0925C12.1937 47.5161 12.9209 47.4737 13.3021 47.0925Z" fill="#6370C8"/>
<path d="M10.125 13.3863C10.358 13.5204 10.5698 13.704 10.7322 13.8452C11.2264 14.2688 11.6218 14.7984 11.996 15.335C12.3561 15.8504 12.695 16.3799 13.0551 16.8953C13.4575 17.4813 13.9376 18.0038 14.3754 18.5615C14.5095 18.731 15.1026 19.3382 14.7778 19.5076C14.5589 19.6277 14.0082 19.3029 13.7964 19.2252C12.7656 18.8581 11.5724 18.7804 10.4922 18.9216C9.62373 19.0346 8.72707 19.6559 9.3625 20.6232C9.72258 21.1668 10.3157 21.1244 10.8875 21.0397C11.6218 20.9268 12.3067 20.955 13.0268 21.1456C13.6481 21.308 14.22 21.5834 14.7849 21.8799C15.265 22.1341 15.8651 22.3388 15.4344 22.939C15.1096 23.3838 14.4813 23.1578 14.0012 23.2002C13.401 23.2496 12.7162 23.3555 12.1796 23.6591C11.1699 24.231 11.7418 25.6148 12.815 25.5937C13.1257 25.5866 13.4152 25.4524 13.7117 25.3818C14.0435 25.2971 14.3754 25.2759 14.7143 25.2901C15.4838 25.3183 16.2746 25.4524 17.0159 25.6643C17.5949 25.8266 18.1526 26.0526 18.6751 26.3491C19.2399 26.6598 19.7059 27.0905 20.2354 27.4505C20.7085 27.7682 21.2521 27.7824 21.6758 27.3587C21.8664 27.1681 21.9864 26.9422 21.9935 26.6739C21.9935 26.3985 21.8664 26.2714 21.9723 26.0173C22.0923 25.7349 22.2759 25.5937 22.2759 25.2618C22.283 24.9935 22.1629 24.7676 22.0147 24.5487C21.6758 24.0545 21.1957 23.6732 20.8144 23.2143C18.5975 20.5737 16.6347 17.7214 14.4389 15.0596C13.9235 14.4383 13.394 13.824 12.8503 13.231C12.2643 12.5955 11.6642 11.9177 10.9158 11.4588C8.23285 9.81376 6.76429 12.9627 6.59485 15.1655C6.55248 15.7515 6.67957 16.3093 7.35737 16.4081C7.89395 16.4858 8.38817 16.2175 8.5788 15.7092C8.81886 15.0808 8.47289 13.4145 9.31308 13.2027C9.58843 13.1321 9.87085 13.231 10.125 13.3863Z" fill="#6370C8"/>
<path d="M19.2682 28.4955C17.3336 26.921 14.7213 26.6457 12.4126 27.3729C11.1276 27.7753 11.6783 29.8016 12.9703 29.3992C14.4883 28.9191 16.4511 28.8979 17.7855 29.9852C18.8234 30.8254 20.3202 29.3498 19.2682 28.4955Z" fill="#6370C8"/>
<path d="M15.4556 30.9807C14.7213 30.8466 13.9658 30.8183 13.2175 30.8113C11.8689 30.8042 11.8689 32.9011 13.2175 32.9082C13.8599 32.9153 14.5307 32.9082 15.1661 33.0494C15.7945 33.1906 16.3452 33.4942 16.9383 33.7201C18.2021 34.2002 18.7457 32.1739 17.496 31.6938C16.8112 31.4396 16.1899 31.1149 15.4556 30.9807Z" fill="#6370C8"/>
<path d="M12.5114 36.2195C13.1609 35.9653 13.5704 36.4384 14.1847 36.5443C14.7425 36.6431 15.3143 36.396 15.4767 35.81C15.6179 35.3087 15.3073 34.6168 14.7425 34.518C14.34 34.4474 13.9235 34.172 13.4998 34.0943C12.9703 33.9884 12.469 33.9955 11.9536 34.1932C11.4241 34.3979 11.0569 34.8992 11.2193 35.4852C11.3605 35.9865 11.9819 36.4243 12.5114 36.2195Z" fill="#6370C8"/>
<path d="M12.822 37.568C11.4735 37.568 11.4664 39.6649 12.822 39.6649H12.9562C14.3047 39.6649 14.3118 37.568 12.9562 37.568H12.822Z" fill="#6370C8"/>
<path d="M52.5508 24.7393C52.7485 24.8453 53.0026 24.8664 53.2921 24.7393C56.1374 23.5461 58.2343 20.6232 61.5386 20.6443C62.8871 20.6514 62.8871 18.5545 61.5386 18.5474C60.9949 18.5404 60.4372 18.611 59.8935 18.7239C59.8017 18.4486 59.6041 18.2579 59.3569 18.152C60.4372 17.1353 61.701 16.4646 63.4378 16.514C64.7864 16.5493 64.7864 14.4524 63.4378 14.4171C61.6021 14.3677 60.1971 14.9325 58.9898 15.808C58.9404 15.7515 58.8627 15.7021 58.7921 15.6527C60.3313 13.2451 63.0707 9.31953 64.038 10.7528C64.7864 11.8683 66.6079 10.8163 65.8525 9.69373C63.2825 5.88113 60.176 10.0962 58.432 12.4402C55.855 15.8927 54.0546 19.8465 51.4494 23.2708C50.828 24.0827 51.7247 24.8735 52.5508 24.7393Z" fill="#6370C8"/>
<path d="M63.1765 22.6989C61.7362 22.0564 59.7522 22.3318 58.4178 23.1084C57.6694 23.5462 56.9775 24.0757 56.2432 24.5417C55.6925 24.8876 55.1983 25.1983 54.8594 25.7631C54.1675 26.9281 55.9749 27.9801 56.6739 26.8222C57.0128 26.2503 58.3472 25.6501 58.8908 25.2901C59.4486 24.9159 59.9852 24.584 60.663 24.5275C60.9807 24.4993 61.835 24.3863 62.1245 24.5134C63.3389 25.05 64.405 23.2426 63.1765 22.6989Z" fill="#6370C8"/>
<path d="M58.5872 29.491C59.491 28.9262 60.8395 27.8883 61.9762 28.086C63.2965 28.326 63.8613 26.2997 62.534 26.0596C60.6912 25.7278 59.0462 26.7304 57.5282 27.6765C56.3844 28.3896 57.4364 30.2041 58.5872 29.491Z" fill="#6370C8"/>
<path d="M63.6496 29.9358C63.1341 29.7663 62.5834 29.6392 62.0398 29.7098C61.7574 29.7451 61.475 29.8087 61.1996 29.8793C60.9949 29.9287 60.7548 30.0699 60.5571 30.0982C59.9923 30.1688 59.5051 30.5288 59.5051 31.1502C59.5051 31.6585 59.9852 32.2728 60.5571 32.2022C61.0513 32.1386 61.4961 31.9692 61.9763 31.8633C62.3999 31.7644 62.6823 31.835 63.0988 31.9692C64.3768 32.3787 64.9275 30.3523 63.6496 29.9358Z" fill="#6370C8"/>
<path d="M61.2703 34.6803C61.2703 35.2099 61.7504 35.7747 62.3222 35.7323C62.6964 35.7041 63.0353 35.5346 63.3036 35.5346C64.6522 35.5276 64.6592 33.4307 63.3036 33.4377C63.0918 33.4377 62.873 33.4448 62.6682 33.4942C62.5976 33.5083 62.0398 33.6566 62.3222 33.6354C61.7574 33.6778 61.2703 34.0802 61.2703 34.6803Z" fill="#6370C8"/>
<path d="M63.8403 38.2246C64.1791 38.6765 64.744 38.9095 65.2735 38.5988C65.7183 38.3376 65.9937 37.6174 65.6477 37.1656C65.5842 37.0809 65.5136 36.9891 65.45 36.9043C65.1111 36.4525 64.5463 36.2195 64.0168 36.5302C63.572 36.7914 63.2966 37.5115 63.6426 37.9634C63.7061 38.0481 63.7767 38.1399 63.8403 38.2246Z" fill="#6370C8"/>
<path d="M30.8542 66.2331C31.8073 67.1862 33.2971 65.7035 32.3369 64.7504L32.2945 64.708C31.3413 63.7549 29.8516 65.2376 30.8118 66.1907C30.8259 66.2048 30.8401 66.219 30.8542 66.2331Z" fill="#6370C8"/>
<path d="M43.7464 66.6002C44.0853 66.6426 44.4313 66.5014 44.6431 66.0919C45.2503 64.8846 43.2452 63.8184 42.7792 65.174C42.5321 65.8659 43.1393 66.5226 43.7464 66.6002Z" fill="#6370C8"/>
<path d="M73.9859 58.2125C73.9153 57.7748 73.8024 57.3511 73.647 56.9346C73.4564 56.4404 73.2305 55.9461 72.9057 55.5225C72.5385 55.0354 72.1926 54.6612 72.2703 54.0045C72.3409 53.4044 72.4679 52.8749 72.4185 52.2606C72.3691 51.597 72.2208 50.9615 72.0373 50.3261C71.8608 49.726 71.7972 49.2106 72.0161 48.6175C72.2279 48.0456 72.5103 47.5161 72.6868 46.9301C73.061 45.6874 73.2658 44.3601 73.3364 43.068C73.407 41.7054 73.2446 40.3569 72.9763 39.0225C72.7151 37.7234 72.3973 36.4172 72.4044 35.0757C72.4115 33.9602 72.9551 32.6752 72.3338 31.6585C72.0161 31.136 72.1149 30.776 72.2985 30.2111C72.4962 29.5828 72.708 28.9261 72.7433 28.2625C72.7715 27.6553 72.6656 27.0834 72.821 26.4833C72.9904 25.8196 73.2234 25.1842 73.3576 24.5134C73.64 23.1296 73.7882 21.7175 73.873 20.3055C74.0424 17.5378 73.9083 14.7631 73.4917 12.0237C73.1104 9.52429 72.475 7.02492 71.3101 4.77267C70.3075 2.83107 68.8036 1.0095 66.6643 0.310525C64.052 -0.536718 61.6091 0.479973 59.371 1.7932C58.8556 2.09679 58.3543 2.42157 57.8742 2.78165C57.3305 3.18409 56.8716 3.67831 56.3421 4.09487C55.9679 4.39141 55.5584 4.46201 55.1065 4.5538C54.5135 4.68089 53.9769 4.92094 53.4756 5.2669C52.5083 5.93763 51.8023 6.91902 51.1598 7.89335C50.4255 9.00888 49.7689 10.1738 49.1617 11.367C48.8934 11.8895 48.6322 12.419 48.3639 12.9415C48.1027 13.4428 47.8767 13.9794 47.439 14.3536C47.0224 14.7137 46.5423 14.9608 46.1752 15.3773C45.7657 15.8574 45.5044 16.4223 45.1938 16.973C44.9326 17.4319 44.6925 17.5802 44.163 17.5307C43.5205 17.4672 42.9133 17.4107 42.2708 17.5025C41.1341 17.6649 39.9691 18.152 39.1148 18.9357C38.8253 19.197 38.4794 19.7689 38.0628 19.8465C37.6251 19.9242 37.1873 19.4441 36.8061 19.2746C35.6764 18.7875 34.342 18.5545 33.1206 18.5051C32.5134 18.4768 31.8991 18.5898 31.2919 18.5333C30.6918 18.4698 30.1835 18.1379 29.6045 17.9826C29.0538 17.8343 28.4184 17.9402 27.9171 17.6366C27.4652 17.3613 27.1546 16.8882 26.7168 16.5846C26.2509 16.2528 25.7284 15.9916 25.1847 15.8009C24.6552 15.6174 24.0974 15.5044 23.6597 15.1373C23.2502 14.7913 23.0243 14.3042 22.7136 13.8876C22.3324 13.3863 21.824 12.9909 21.4922 12.4543C21.1886 11.9672 20.9697 11.5083 20.5814 11.0776C20.1436 10.5975 19.6988 10.1385 19.247 9.67256C18.3362 8.71941 17.3901 7.80156 16.3805 6.95432C15.4273 6.1565 14.4036 5.43634 13.3516 4.77973C12.2996 4.12312 11.2052 3.49475 10.012 3.14173C5.09802 1.70141 2.18916 6.66485 1.05244 10.6469C0.3111 13.2239 -0.0136801 15.921 0.000440568 18.6039C0.0216216 21.2939 0.388766 23.9839 1.08774 26.5821C1.4337 27.8671 1.88556 29.1097 2.35861 30.3453C2.57042 30.896 2.86695 31.2772 3.18467 31.7574C3.35412 32.0186 3.42472 32.2939 3.52356 32.5905C3.63653 32.9011 3.79185 33.1977 3.86246 33.5224C3.98954 34.1296 3.91895 34.7721 3.90483 35.3864C3.88365 36.0642 3.86246 36.749 3.8907 37.4268C3.91895 38.0622 3.98955 38.7047 4.15193 39.3261C4.3002 39.9121 4.6038 40.491 4.54026 41.1123C4.47671 41.7054 4.21547 42.2702 4.06015 42.8421C3.8907 43.4705 3.77068 44.113 3.70007 44.7555C3.63653 45.3274 3.72125 45.8781 3.72125 46.45C3.72125 47.0854 3.53769 47.3043 2.94462 47.4596C0.692365 48.0597 -0.0348535 50.905 0.162837 52.9384C0.22638 53.595 0.3817 54.2305 0.607632 54.8518C0.833563 55.466 0.960659 55.9885 0.826512 56.6451C0.551158 57.9795 0.424071 59.2927 0.826512 60.6201C1.13717 61.6438 1.72317 62.6041 2.58453 63.2536C3.05052 63.6066 3.55887 63.8255 4.10957 64.002C4.57556 64.1503 4.77325 64.2915 4.85091 64.7857C5.02036 65.9012 5.22511 66.9744 6.09353 67.7793C6.44655 68.1111 6.89136 68.3441 7.14553 68.7677C7.46324 69.3114 7.50561 70.0174 7.71742 70.6034C8.41639 72.5662 10.3651 73.7382 12.3843 73.8865C13.6834 73.9853 14.9966 73.6747 16.1898 73.1805C16.7053 72.9616 17.1853 72.658 17.7078 72.4462C18.3079 72.1991 18.7881 72.3968 19.3741 72.5733C19.8965 72.7286 20.3484 72.8204 20.7861 73.1734C21.2592 73.5547 21.6404 74.0348 22.1276 74.409C23.1514 75.2068 24.3234 75.8069 25.4883 76.3647C25.9473 76.5836 26.3921 76.7883 26.738 77.1766C27.1405 77.6144 27.4088 78.1439 27.8818 78.5252C28.8208 79.2806 29.9999 79.676 31.179 79.8384C32.4922 80.0219 33.8337 79.9655 35.154 79.9655C36.5449 79.9725 37.9428 79.9513 39.3337 79.8878C40.5622 79.8313 41.8401 79.5489 43.0616 79.676C44.3536 79.8172 45.5962 80.0431 46.853 79.556C47.4178 79.3371 47.9473 79.0406 48.5122 78.8005C49.1123 78.5463 49.7336 78.3486 50.3055 78.0309C50.7715 77.7768 51.2022 77.452 51.5763 77.0778C52.007 76.6471 52.3106 76.1317 52.706 75.6798C53.0096 75.3268 53.4756 75.0585 53.9416 75.0232C54.5064 74.9809 54.923 75.3904 55.3678 75.6728C56.4056 76.3294 57.62 76.6895 58.8485 76.5836C60.0911 76.4777 61.3055 75.9411 62.2869 75.1785C62.7105 74.8538 62.9788 74.4796 63.3107 74.063C63.6001 73.6959 63.939 73.5052 64.3768 73.3429C65.4358 72.9475 66.3184 72.2909 66.9397 71.3307C67.1868 70.9494 67.3774 70.5681 67.7516 70.2928C68.1964 69.9609 68.7471 69.7703 69.2131 69.4738C70.2157 68.8313 71.0982 67.9205 71.6701 66.8685C71.9455 66.3602 72.1644 65.7883 72.235 65.2093C72.3056 64.5951 72.0796 64.0302 72.1008 63.4301C72.122 62.9006 72.5103 62.6182 72.8492 62.2652C73.2799 61.8133 73.6117 61.2838 73.8094 60.6907C74.0777 59.8788 74.1201 59.0386 73.9859 58.2125ZM5.43692 17.3683C5.49341 15.7727 5.69109 14.1912 6.05117 12.6732C6.1359 12.3131 6.31241 11.946 6.34065 11.5789C6.36889 11.1835 6.17825 10.9293 6.05823 10.5692C5.86054 9.96203 5.76876 9.05125 6.52421 8.80413C6.82075 8.70529 7.12435 8.9524 7.37852 8.83238C7.49149 8.78295 7.7033 8.54996 7.78802 8.45818C8.00689 8.21106 7.75978 5.08333 9.29894 6.86253C9.50369 7.09553 9.58841 7.4203 9.72962 7.6886C9.87083 7.94983 10.1744 8.51466 10.4992 8.6135C10.7816 8.69823 10.9369 8.437 11.2123 8.35933C11.4312 8.29579 11.643 8.30991 11.8477 8.42287C12.4055 8.74059 12.6526 9.58783 12.9844 10.0891C13.9164 11.4871 15.0743 12.765 16.211 13.9935C16.8253 14.6501 17.4395 15.3067 18.0397 15.9775C18.6186 16.627 19.1128 17.326 19.6424 18.0108C20.0942 18.5968 20.659 19.0558 21.1533 19.5994C21.4216 19.8889 21.6546 20.1995 21.9087 20.5031C22.1347 20.7644 22.4312 21.2586 22.7772 21.0115C23.3137 20.6373 23.9068 20.6161 24.2386 21.2798C24.5705 21.9576 24.7329 22.706 25.1283 23.3555C25.5236 24.0051 26.2932 24.0757 27.0063 24.0827C27.4017 24.0898 27.4158 23.7791 27.5853 23.4897C27.7123 23.2637 27.9877 22.9743 28.2419 22.8825C28.5031 22.7907 28.5737 22.8754 28.7855 23.059C28.9479 23.2002 29.2162 23.2708 29.3362 23.4403C29.4492 23.5956 29.3503 23.8356 29.4351 24.0121C29.4845 24.118 29.5692 24.1816 29.6469 24.2593C29.8305 24.4569 29.9999 24.7747 30.2682 24.8523C30.9389 25.0359 31.1719 24.0969 31.5108 23.7368C31.7297 23.5038 32.0615 23.3908 32.3792 23.4685C32.4851 23.4967 32.6122 23.5532 32.704 23.6238C32.93 23.8074 32.8805 24.0051 33.0147 24.224C33.2547 24.6123 33.3818 24.2028 33.5654 23.991C33.8054 23.7156 34.1373 23.5956 34.4973 23.7085C34.8362 23.8145 35.1116 24.118 35.1398 24.4781C35.1681 24.8735 34.8009 25.0783 34.7727 25.4383C34.928 25.6219 35.3305 25.5301 35.5423 25.5231C35.86 25.5089 36.1707 25.516 36.4884 25.4878C36.8414 25.4595 37.025 25.396 37.1874 25.7631C37.3427 26.1091 37.385 26.3844 37.7875 26.5397C38.5218 26.8292 39.1784 26.3421 39.2419 25.6007C39.2701 25.2971 39.249 25.2265 39.5879 25.1136C39.8067 25.043 40.2445 24.8735 40.4704 24.9088C40.774 24.9582 40.8587 25.3465 41.127 25.4948C41.4236 25.6572 41.826 25.6148 42.1014 25.4454C42.3696 25.283 42.6521 24.9582 42.5956 24.6264C42.5391 24.3157 42.2426 24.1251 42.2355 23.7862C42.2143 23.0731 43.0969 22.6142 43.6688 23.0449C43.7958 23.1437 43.8806 23.2708 43.9441 23.4191C43.9935 23.5391 43.9724 23.765 44.0359 23.8568C44.1912 24.0827 44.5866 24.0333 44.8055 23.8709C45.0102 23.7227 45.0032 23.4332 45.1797 23.2496C45.3915 23.0378 45.7586 22.946 46.0481 23.0166C46.3023 23.0802 46.4929 23.3767 46.7541 23.3908C47.0436 23.3979 47.4319 23.0449 47.6367 22.8754C48.1733 22.4306 48.5828 21.5834 48.8722 20.955C48.9993 20.6797 49.084 20.3266 49.2747 20.0936C49.543 19.7618 49.8607 19.7971 50.249 19.8183C50.7997 19.8465 51.1457 19.0417 51.4634 18.6392C51.9647 18.0108 52.4589 17.4248 52.7978 16.6906C53.5603 15.0596 54.3581 13.4428 55.1207 11.8048C55.283 11.4518 55.4384 11.0987 55.6008 10.7457C55.7278 10.4633 55.8479 10.0891 56.095 9.87731C56.335 9.67256 56.5186 9.75022 56.8081 9.76434C57.1964 9.77846 57.3658 9.59489 57.62 9.30542C58.1001 8.74765 58.5943 8.19694 59.0109 7.58269C59.2368 7.25085 59.4487 6.9049 59.6322 6.54482C59.7946 6.2271 59.9005 5.8529 60.1123 5.57049C60.4724 5.09039 61.4255 5.00566 61.6585 5.66228C61.7715 5.97293 61.6656 6.21298 62.0892 6.07884C62.4352 5.97293 62.7529 5.62697 62.9647 5.35868C63.2895 4.95624 63.4307 4.34199 63.8331 4.01015C64.4262 3.51593 65.4358 4.09487 65.2734 4.87151C65.224 5.11863 64.9487 5.31632 65.104 5.56343C65.2311 5.76112 65.5912 5.85997 65.7747 6.02941C66.0995 6.32595 66.0924 6.44597 66.4666 6.23416C66.855 6.01529 67.2998 6.0859 67.5892 6.48128C67.9846 7.02492 67.5539 7.58269 67.3915 8.11928C67.1374 8.96652 67.5963 9.84201 67.7446 10.6681C68.0693 12.4967 68.14 14.3465 68.26 16.1893C68.3871 18.0673 68.5989 19.9454 68.5141 21.8305C68.4718 22.7907 68.3376 23.6944 68.0199 24.6052C67.8717 25.0218 67.7093 25.4383 67.6528 25.8761C67.6034 26.2856 67.7163 26.681 67.6952 27.0834C67.674 27.5353 67.5539 27.973 67.5469 28.4319C67.5398 28.905 67.5045 29.371 67.448 29.844C67.3351 30.8607 67.1656 31.8703 67.095 32.8941C67.0174 33.9249 67.0597 34.9628 67.0456 35.9936C67.0385 36.4242 66.9044 36.8126 66.8691 37.2362C66.8267 37.6669 66.9397 38.0905 67.0738 38.4929C67.1656 38.7683 67.4339 39.1848 67.2009 39.4461C67.1444 39.5026 66.9397 39.552 66.8903 39.5873C66.7067 39.7144 66.6008 39.9191 66.5514 40.1309C66.3678 40.9146 67.0244 41.4936 67.7728 41.4159C68.2035 43.5976 67.6669 45.991 66.8761 48.0244C66.7279 48.3986 66.389 48.8928 66.4031 49.3023C66.4172 49.7542 66.9538 49.4718 67.0527 49.8954C67.095 50.0931 67.0738 50.3473 67.1021 50.5591C67.1233 50.7144 67.1727 50.905 67.1091 51.0533C66.8761 51.5758 66.2478 51.0674 65.9795 51.371C65.8171 51.5617 65.8312 52.2324 65.9018 52.4795C66.036 52.9031 66.509 52.7902 66.7844 53.0726C67.0597 53.355 67.0315 53.8068 66.8408 54.1246C66.7279 54.3081 66.5937 54.3999 66.4031 54.4846C66.1348 54.6117 66.0713 54.6894 66.036 54.993C65.9724 55.5155 65.923 56.0379 65.7677 56.5463C65.7041 56.751 65.5982 56.9487 65.5559 57.1535C65.4853 57.5206 65.5841 57.5841 65.9512 57.6547C66.396 57.7395 66.862 57.7889 67.3139 57.8666C67.7587 57.9372 68.3164 57.9089 68.6906 58.1843C69.5308 58.8056 68.5706 59.7658 67.8222 59.7658C66.9044 59.7658 66.0218 59.2292 65.104 59.2786C64.6663 59.3069 64.525 59.5822 64.3415 59.9494C64.0873 60.4577 63.7484 60.9307 63.3954 61.3755C63.2048 61.6227 62.5481 62.1028 62.8376 62.4064C62.9576 62.5334 63.2612 62.5758 63.4307 62.6394C63.6778 62.7311 63.9108 62.8441 64.1438 62.9571C64.7933 63.2677 66.1842 63.6137 66.3819 64.4044C66.4666 64.7433 66.3184 65.1175 66.0571 65.3364C65.6265 65.6965 65.1252 65.4776 64.6945 65.2376C63.8119 64.7433 62.8517 64.1997 61.8986 63.8679C61.4397 63.7055 61.1714 63.762 60.8042 64.0867C60.6348 64.235 60.4795 64.3974 60.303 64.5457C60.1264 64.6869 59.844 64.8069 59.7099 64.9763C59.4345 65.3223 59.9994 65.4494 60.2747 65.5835C60.7689 65.8306 61.242 66.1342 61.6938 66.459C62.3505 66.9321 63.5719 67.7793 62.76 68.6477C62.4775 68.9513 62.0398 69.1349 61.6868 68.8525C61.3126 68.5559 61.0302 68.1676 60.6348 67.8781C60.1688 67.5322 59.6605 67.2498 59.1521 66.9674C58.792 66.7626 58.3755 66.4025 57.9519 66.3813C57.5282 66.3531 57.154 66.7485 56.8222 66.9603C56.5892 67.1086 55.8055 67.3698 55.9891 67.7157C56.0667 67.864 56.4056 67.984 56.5468 68.0758C56.7375 68.1959 56.914 68.33 57.0976 68.4712C57.5353 68.8101 57.9519 69.1772 58.3119 69.5938C58.5944 69.9186 59.025 70.3846 58.9474 70.8576C58.8556 71.3942 58.2343 71.6695 57.7612 71.4507C57.3235 71.2459 57.0905 70.7588 56.7728 70.4269C56.3845 70.0245 55.8973 69.7138 55.4313 69.4102C55.1277 69.2125 54.6547 68.7254 54.2734 68.7324C53.8569 68.7466 53.4403 69.2831 53.1579 69.5373C52.9743 69.6997 52.5013 70.1798 52.233 70.1163C52.1271 70.088 51.9152 69.7774 51.8093 69.6997C51.654 69.5726 51.4775 69.4738 51.2728 69.4526C50.7644 69.4102 50.4961 69.8197 50.2702 70.201C50.016 70.6387 49.7407 71.0835 49.3665 71.4366C49.2394 71.5495 49.0064 71.6837 48.9499 71.8531C48.9075 71.9731 48.9711 72.1073 48.957 72.2273C48.9287 72.538 48.6604 72.8486 48.5122 73.1169C48.3074 73.4841 48.0321 73.6323 47.672 73.3146C47.5378 73.1946 47.4672 73.0322 47.2837 73.011C47.0507 72.9898 46.7824 73.2228 46.5706 73.3146C46.4364 73.3711 46.2105 73.3993 46.1116 73.5123C45.9493 73.6888 46.0622 73.8724 46.0622 74.0842C46.0622 74.5643 45.6103 74.882 45.1444 74.8961C44.6219 74.9103 44.6854 74.5572 44.396 74.296C44.0924 74.0277 43.4358 74.409 43.1039 74.4937C41.9601 74.7973 40.774 74.9385 39.5949 75.002C38.4017 75.0726 37.2015 75.0585 36.0083 75.0373C35.4434 75.0303 34.8715 75.0444 34.3138 74.9879C34.0737 74.9667 33.8266 74.9314 33.5936 74.8608C33.3677 74.7973 33.1135 74.6561 32.8805 74.6702C32.5769 74.6914 32.4498 74.9809 32.1392 75.0162C31.8427 75.0444 31.2567 74.9314 31.0872 74.6561C30.9742 74.4796 31.0943 74.2113 30.9813 74.0418C30.9177 73.95 30.7695 73.9359 30.6706 73.8794C30.2046 73.597 29.8163 73.1522 29.3503 72.8486C27.5147 71.6625 25.0153 71.2247 24.0057 69.0925C23.8009 68.6548 23.4903 68.3018 23.2573 67.8852C23.0949 67.5957 22.996 67.278 22.876 66.9744C22.6218 66.339 22.2265 65.6965 21.4428 65.8448C21.0121 65.9295 20.6449 66.226 20.6096 66.6849C20.5884 66.9462 20.9626 67.5251 20.7791 67.7157C20.5108 67.7228 20.2778 67.4616 20.0589 67.3345C19.7906 67.1721 19.5011 67.045 19.2187 66.9038C18.4703 66.5367 18.0467 66.6849 17.2701 66.9462C16.5287 67.2003 15.8015 67.4686 15.0884 67.7934C14.7425 67.9487 14.3965 68.1111 14.0647 68.3018C13.8034 68.45 13.5351 68.6548 13.2316 68.7254C12.7797 68.8242 12.3561 68.5559 12.2078 68.1253C12.0242 67.5957 12.349 67.2215 12.7726 66.9462C13.3375 66.579 14.0223 66.3319 14.6366 66.0636C14.9119 65.9436 15.1873 65.8236 15.4697 65.7318C15.6956 65.6541 16.1828 65.6047 16.3028 65.3646C16.1757 64.9834 15.5403 64.7786 15.2296 64.5668C14.799 64.2774 14.566 63.9667 14.0082 64.0655C13.4504 64.1644 12.8997 64.2774 12.3278 64.348C11.7701 64.4186 11.1982 64.6445 10.6333 64.6163C9.75786 64.5739 9.34129 63.3948 10.1603 62.9288C10.4851 62.7382 10.9016 62.7453 11.2688 62.7311C11.4876 62.7241 12.2784 62.8088 12.3843 62.5687C12.1231 61.8415 11.53 61.192 11.1911 60.493C11.064 60.2318 10.9722 59.907 10.7887 59.6881C10.5627 59.4198 10.3227 59.441 9.99085 59.4551C9.20009 59.4834 8.40933 59.4269 7.61857 59.4269C7.0961 59.4269 6.40419 59.5257 6.05117 59.0386C5.75464 58.6291 5.80406 57.9795 6.27004 57.7183C6.77133 57.4359 7.60445 57.6547 8.1481 57.6689C8.487 57.6759 8.81883 57.6971 9.15772 57.7112C9.46132 57.7183 9.83552 57.803 9.79316 57.4076C9.76492 57.1182 9.56723 56.8287 9.46132 56.5604C9.306 56.1579 9.20715 55.7343 9.10831 55.3178C9.03064 54.9859 8.94591 54.647 8.90355 54.3081C8.87531 54.0893 8.92474 53.7927 8.75529 53.6162C8.46581 53.3197 7.67506 53.5174 7.30086 53.5033C6.90548 53.4891 6.41831 53.4821 6.07235 53.242C5.69109 52.9808 5.55694 52.3454 5.88172 51.9853C6.51009 51.2863 7.68918 52.0206 8.43758 51.8158C8.84002 51.7029 8.75528 51.251 8.74822 50.898C8.74116 50.2555 8.84708 49.6271 8.9671 48.9987C9.03771 48.6175 9.25657 48.1303 9.25657 47.742C9.25657 47.4808 9.15067 47.4737 8.93885 47.3254C8.6635 47.1278 8.55054 46.8595 8.5929 46.5276C8.62821 46.2452 8.79059 45.9345 9.05888 45.8075C9.24951 45.7157 9.54605 45.8498 9.69432 45.7439C9.86377 45.6239 9.96261 44.7625 9.91319 44.5719C9.84258 44.3389 9.68019 44.3671 9.51074 44.2401C9.33423 44.113 9.22127 43.9082 9.19303 43.6894C9.15773 43.4493 9.20715 43.1951 9.35541 43.0045C9.5531 42.7362 9.75786 42.8068 10.012 42.6656C10.4215 42.4397 10.4286 41.5783 10.4074 41.1617C10.3721 40.4204 9.99791 39.8485 9.61665 39.2343C8.95298 38.154 9.05182 36.8267 9.10124 35.6052C9.12948 34.8922 9.06594 34.1649 9.1789 33.4589C9.29893 32.7105 9.14361 32.1316 8.77647 31.4679C8.04925 30.1688 7.38557 28.8838 6.88429 27.4788C6.37594 26.0314 6.00881 24.5346 5.76876 23.0166C5.49341 21.1739 5.36632 19.2605 5.43692 17.3683Z" fill="#6370C8"/>
<path d="M88.7139 30.3171C89.773 27.9589 91.178 24.9512 91.178 22.2471C91.178 19.8889 92.2723 18.1097 95.3154 18.1097C98.2878 18.1097 100.173 21.1528 101.5 23.405C102.079 24.3935 107.24 34.8569 108.476 37.6599C109.606 40.2581 111.448 38.6836 111.448 40.6323C111.448 43.1246 106.591 43.0257 104.882 43.0257C99.9964 43.0257 97.0522 42.9904 97.0522 40.8723C97.0522 39.2343 99.135 39.8486 99.135 38.6483C99.135 37.1092 98.2807 36.975 92.7807 36.975C91.0015 36.975 89.9424 37.0456 89.9424 38.7189C89.9424 40.0533 92.1311 39.1637 92.1311 40.9429C92.1311 42.9975 88.4386 43.0257 87.0688 43.0257C82.1831 43.0257 81.7383 42.1008 81.7383 41.0065C81.7383 39.3967 83.581 39.8768 84.5765 38.6483C85.332 37.7234 86.0451 36.0854 86.5605 34.9911L88.7139 30.3171ZM95.8943 32.7812C96.2332 32.7812 97.264 32.8518 97.264 32.3364C97.264 31.821 96.2756 30.0488 96.0002 29.5687C95.6896 29.0251 95.1106 27.7542 94.3622 27.7542C93.5432 27.7542 92.9643 29.8017 92.823 30.1829C92.6889 30.5571 92.1029 31.8916 92.1029 32.3011C92.1029 32.88 92.9572 32.7812 93.3314 32.7812H95.8943V32.7812Z" fill="#6370C8"/>
<path d="M121.432 26.7657C121.432 26.9352 121.396 27.3094 121.672 27.3094C121.841 27.3094 122.392 26.7657 123.281 26.2503C124.171 25.7067 125.364 25.1913 126.868 25.1913C130.49 25.1913 133.568 28.2343 133.568 32.7458C133.568 38.5918 129.191 43.1387 123.317 43.1387C119.01 43.1387 116.991 40.9147 116.447 40.9147C115.903 40.9147 115.353 41.4301 114.223 41.4301C113.743 41.4301 113.199 41.2959 113.199 40.7452C113.199 40.1945 113.884 39.1072 113.884 34.6592V25.5655C113.884 23.5815 111.321 24.4711 111.321 22.5225C111.321 20.2349 117.951 18.6957 120.789 18.6957C121.714 18.6957 121.679 19.4159 121.643 20.1643L121.432 26.7657ZM123.176 30.4583C121.672 30.4583 121.502 31.6868 121.502 32.8518C121.502 39.4814 121.876 40.0321 123.246 40.0321C125.505 40.0321 125.88 37.4692 125.88 35.7253C125.873 34.1156 125.428 30.4583 123.176 30.4583Z" fill="#6370C8"/>
<path d="M134.797 34.7651C134.797 28.6438 140.163 25.1913 145.804 25.1913C151.784 25.1913 155.201 29.8723 155.201 34.1156C155.201 39.7215 149.186 43.1387 144.159 43.1387C139.104 43.1387 134.797 40.1663 134.797 34.7651ZM144.335 29.2227C143.206 29.2227 142.592 30.2818 142.662 31.2703C142.796 33.4237 143.418 38.6907 145.776 38.8248C147.075 38.8954 147.35 37.8011 147.35 36.7067C147.343 35.1746 146.658 29.2227 144.335 29.2227Z" fill="#6370C8"/>
<path d="M166.11 35.2735C166.11 36.6432 166.215 38.7613 168.058 38.7613C170.522 38.7613 170.176 35.5488 170.176 33.9038C170.176 32.7741 170.212 31.3055 170.042 30.2112C169.767 28.5026 168.093 29.0815 168.093 27.6483C168.093 25.629 174.963 25.2901 176.262 25.2901C177.491 25.2901 178.006 26.0103 178.006 27.2035C178.006 28.2978 177.936 29.3569 177.936 30.4512V37.321C177.936 39.3685 179.814 38.4153 179.814 40.0533C179.814 42.3762 173.763 43.0257 171.885 43.0257C169.251 43.0257 170.995 40.9782 169.626 40.9782C169.251 40.9782 168.701 41.4936 167.882 42.002C167.063 42.5103 165.968 43.0257 164.464 43.0257C157.969 43.0257 158.52 37.8999 158.52 32.7741C158.52 27.5424 156.161 29.837 156.161 27.5777C156.161 25.389 164.775 25.2901 165.05 25.2901C166.011 25.2901 166.11 25.7349 166.11 26.5892V35.2735Z" fill="#6370C8"/>
<path d="M191.23 35.2735C191.23 37.561 192.191 38.1117 193.108 38.1117C194.167 38.1117 194.782 37.328 195.396 37.328C196.081 37.328 196.561 38.2882 196.561 38.9025C196.561 41.1618 192.664 43.1387 189.211 43.1387C187.467 43.1387 183.09 42.3832 183.09 36.9538V29.9146C183.09 29.3004 183.09 29.0603 182.92 28.9544C182.751 28.8485 182.377 28.9191 181.586 28.9191C180.696 28.9191 180.251 28.9544 180.082 28.785C179.842 28.5449 179.913 28.206 179.913 27.4153C179.913 26.9352 179.807 26.561 180.223 26.2856L188.018 21.3293C188.802 20.8491 188.773 20.9551 189.797 20.9551C191.167 20.9551 191.23 20.8209 191.23 22.3883C191.23 23.4474 191.16 24.5064 191.336 24.9159C191.442 25.1913 191.675 25.1913 192.565 25.1913H194.958C196.427 25.1913 196.427 25.2972 196.427 26.8293C196.427 28.7779 196.187 28.9121 194.852 28.9121H192.494C191.294 28.9121 191.23 28.9474 191.23 30.1759V35.2735V35.2735Z" fill="#6370C8"/>
<path d="M215.956 34.0389C215.906 29.9325 215.709 26.2707 214.492 22.3548C213.528 19.2574 212.339 15.9625 209.925 13.7118C207.244 11.207 203.725 9.36551 200.488 7.70039C192.641 3.66459 183.155 2.93787 174.506 2.07003C154.894 0.10152 135.267 0.362577 115.563 0.362577C101.974 0.362577 84.2963 0.546023 75.0494 12.4347C72.4526 15.772 69.4759 19.7937 69.2718 24.1399C69.2085 25.5087 70.0811 26.2778 71.1155 26.4683C71.1015 27.0821 71.0944 27.6959 71.1155 28.3098C71.1367 29.0929 71.2281 29.8549 71.3126 30.6381C71.4041 31.4707 71.3689 32.3103 71.3689 33.1499C71.3689 33.9683 71.3759 34.7868 71.397 35.6052C71.4041 35.9933 71.4041 36.3884 71.39 36.7765C71.3759 37.1927 71.2704 37.5738 71.1859 37.9759C71.0311 38.7309 71.1367 39.4858 71.1296 40.2408C71.1226 41.0733 71.0804 41.9129 71.017 42.7455C70.9185 44.0931 70.7918 45.4337 70.7215 46.7742C69.5674 47.127 68.6596 48.1924 69.124 49.6811C72.2134 59.686 82.7481 59.2062 91.4742 59.4743C91.0309 61.1676 90.4609 62.9033 89.5109 63.9617C89.342 64.1522 89.152 64.3215 88.962 64.4767C87.1956 66.5299 84.8381 67.7576 82.2836 68.3502C82.1781 68.3573 82.0725 68.3714 81.967 68.3785C81.6151 68.3926 81.2562 68.3785 80.8973 68.3785C80.5665 68.3785 80.2358 68.3714 79.9121 68.3785C79.8347 68.3785 79.7573 68.3855 79.6799 68.3855C79.6447 68.3855 79.6306 68.3926 79.6236 68.3926C79.6165 68.3855 79.6095 68.3785 79.5813 68.3714C79.4124 68.3008 79.2365 68.2656 79.0535 68.2585C78.7017 68.2444 78.3146 68.5901 78.3498 68.9641C78.4131 69.5638 78.8213 69.8037 79.2717 70.1141C79.4898 70.2623 79.708 70.3822 79.9402 70.4951C79.9684 70.5304 79.9965 70.5657 80.0247 70.5939C81.7347 72.379 84.3596 73.014 86.7593 73.1974C90.0105 73.4444 93.7402 73.529 96.8296 72.379C102.896 70.1212 106.14 65.9302 106.935 59.8483C111.924 59.4602 117.118 59.8483 122.072 59.8483C127.427 59.8483 132.783 60.0529 138.124 60.074C138.434 60.2222 138.793 60.3139 139.215 60.3139H171.248C175.738 60.3139 180.228 60.3139 184.725 60.3139C189.031 60.3139 193.289 60.3351 197.392 58.8675C204.189 56.4333 211.987 53.6464 214.738 46.3862C216.23 42.3927 216.012 38.2299 215.956 34.0389ZM211.051 39.4788C210.854 44.0367 209.503 47.4022 205.562 49.9069C202.754 51.699 199.214 52.9761 196.069 54.0979C191.797 55.629 187.328 55.368 182.853 55.368H139.813C139.51 55.2198 139.151 55.1351 138.736 55.1351C133.191 55.1281 127.632 54.9023 122.065 54.9023C116.351 54.9023 110.313 54.3802 104.648 55.1351C103.818 55.248 103.212 55.6925 102.825 56.264C102.466 56.6521 102.213 57.1671 102.185 57.8374C101.967 63.0444 99.5671 66.5934 94.4791 67.9763C93.7262 68.1809 92.9309 68.2656 92.1357 68.2938C92.2694 68.188 92.3961 68.0892 92.5298 67.9763C95.1899 65.6762 96.0484 60.9983 96.9914 57.788C97.4699 56.1511 96.3299 55.0293 95.028 54.7964C94.831 54.7329 94.6128 54.6836 94.3806 54.6624C88.0893 54.2108 76.3301 56.3205 73.8741 48.3618C73.4871 47.1129 72.4526 46.6049 71.4322 46.6472C71.4885 45.596 71.58 44.5517 71.6644 43.5075C71.7278 42.6749 71.7911 41.8424 71.8193 41.0098C71.8474 40.2267 71.77 39.4435 71.8052 38.6603C71.8193 38.2793 71.9319 37.9265 72.0022 37.5596C72.0797 37.1857 72.0937 36.8117 72.1008 36.4307C72.1148 35.6194 72.0726 34.808 72.0726 33.9966C72.0726 33.164 72.0797 32.3385 72.0726 31.5059C72.0656 30.7369 71.9108 29.9819 71.8545 29.2129C71.7841 28.3168 71.763 27.3996 71.7911 26.4894C72.9663 26.4189 74.1275 25.6357 74.1979 24.1258C74.3527 20.9437 77.6461 16.788 79.6869 14.4879C82.4103 11.4187 86.513 9.34434 90.3342 7.94734C98.0189 5.13921 106.154 5.28738 114.197 5.28738C131.235 5.28738 148.419 4.72999 165.4 6.17638C173.486 6.86783 181.776 7.31939 189.7 9.21029C193.289 10.064 196.807 11.1717 200.009 13.0132C202.782 14.6078 206.47 16.2659 208.018 19.2151C211.255 25.4099 211.346 32.656 211.051 39.4788Z" fill="#6370C8"/>
</svg>
