<svg xmlns="http://www.w3.org/2000/svg" xmlns:xlink="http://www.w3.org/1999/xlink" version="1.1" x="0px" y="0px" viewBox="0 0 100 125" style="enable-background:new 0 0 100 100;" xml:space="preserve"><path d="M50.3,22.3c-0.3,0-0.7,0-1,0c0.1,0.5,0.1,0.9,0.1,1.4c0,4.6-3.7,8.4-8.4,8.4c-0.7,0-1.4-0.1-2.1-0.3  c-0.1,0.6-0.2,1.2-0.2,1.9c0,6.3,5.1,11.5,11.5,11.5s11.5-5.1,11.5-11.5S56.6,22.3,50.3,22.3z M50,5C30.1,5,12.9,16.8,4.9,33.7  c0,0,0,0.1,0.1,0.1v53.6c0,4.1,3.4,7.5,7.5,7.5s7.5-3.4,7.5-7.5v-3.9c0-4.1,3.4-7.5,7.5-7.5s7.5,3.4,7.5,7.5v3.9  c0,4.1,3.4,7.5,7.5,7.5s7.5-3.4,7.5-7.5V69.9c0-4.1,3.3-7.5,7.5-7.5s7.5,3.3,7.5,7.5v5.5c0,4.1,3.4,7.5,7.5,7.5s7.5-3.4,7.5-7.5  v-8.2c0-5.3,4.3-9.6,9.6-9.6c3,0,5.5-2.4,5.5-5.5V33.8c0,0,0-0.1,0-0.1C87.1,16.8,69.9,5,50,5z M50,54.4c-14.9,0-28.6-8-36-20.7  C21.4,21,35.1,13,50,13s28.6,8,36,20.7C78.6,46.4,64.9,54.4,50,54.4z"/><text x="0" y="115" fill="#000000" font-size="5px" font-weight="bold" font-family="'Helvetica Neue', Helvetica, Arial-Unicode, Arial, Sans-serif">Created by No More Heroes</text><text x="0" y="120" fill="#000000" font-size="5px" font-weight="bold" font-family="'Helvetica Neue', Helvetica, Arial-Unicode, Arial, Sans-serif">from the Noun Project</text></svg>