<svg width="403" height="86" viewBox="0 0 403 86" fill="none" xmlns="http://www.w3.org/2000/svg">
<path fill-rule="evenodd" clip-rule="evenodd" d="M292.102 1.06246C288.95 2.62067 287.35 4.9757 287.109 8.41165C286.945 10.7527 287.111 11.5231 288.081 12.935C290.612 16.6176 294.1 17.9197 298.258 16.7329C304.656 14.9061 307.554 7.15749 303.357 3.10096C300.099 -0.0474051 295.889 -0.809783 292.102 1.06246ZM133.807 1.05497C128.587 2.27867 125.685 5.89884 125.144 11.8651C124.82 15.4253 125.958 19.7874 127.616 21.3421C129.243 22.8689 133.999 23.9653 138.98 23.9618C145.753 23.9578 148.469 22.8299 150.395 19.2217C151.39 17.358 151.477 11.1596 150.553 7.99676C149.586 4.68813 146.459 1.77891 143.1 1.06346C140.03 0.409922 136.574 0.406427 133.807 1.05497ZM220.25 0.848277C216.986 1.28164 214.012 2.6012 212.548 4.26525C209.849 7.33473 209.701 10.91 211.71 24.464C213.286 35.0919 214.382 38.6002 217.085 41.6667C219.534 44.4441 220.227 44.8191 227.628 47.3673C230.817 48.4652 234.175 49.7413 235.089 50.2027C238.313 51.8308 240.5 54.5992 240.5 57.0521C240.5 59.2908 238.956 62.7537 237.202 64.4517C235.728 65.8776 235.078 66.1527 233.181 66.1527C231.28 66.1527 230.695 65.9045 229.53 64.6015C228.767 63.7487 227.525 61.4376 226.77 59.466C224.398 53.2666 221.355 51.1812 217.549 53.1463C214.939 54.4938 213.805 57.2068 212.735 64.6549C211.691 71.9272 211.783 75.6237 213.072 78.2838C217.233 86.8662 239.962 88.4559 248.335 80.7502C253.094 76.3696 255.153 69.3375 255.168 57.4155C255.182 46.6279 253.636 41.8874 249.085 38.7615C246.509 36.9921 245.064 36.5283 239.305 35.6241C233.717 34.7469 232.034 34.0819 229.624 31.7982C227.862 30.1287 226 25.829 226 23.4305C226 19.8149 228.927 16.4818 232.107 16.4778C233.844 16.4753 236.733 18.9826 238.092 21.6706C241.064 27.55 245.298 31.0863 248.081 30.0129C253.147 28.0602 253.48 20.1259 248.865 11.3493C246.082 6.05511 240.661 2.56525 233.143 1.22722C229.477 0.574679 223.609 0.401934 220.25 0.848277ZM268.75 1.1019C265.092 2.37853 262.006 5.91282 262.002 8.82953C262 11.0183 262.632 12.4782 264.316 14.1757C268.801 18.6935 276.333 18.5382 278.834 13.8766C280.148 11.4272 280.076 6.00419 278.704 4.15541C276.243 0.838292 272.657 -0.26159 268.75 1.1019ZM321.145 1.45888C317.818 3.52833 314.823 10.2464 314.227 16.975C313.887 20.8129 314.682 31.9206 316.496 48.6784C317.031 53.6211 317.708 60.8105 318 64.6549C318.666 73.4415 319.264 76.5124 320.9 79.545C322.525 82.558 324.055 83.6554 328.053 84.6784C332.251 85.7518 342.795 85.4603 345.743 84.1891C351.283 81.8007 353.335 76.4116 351.021 70.33C350.482 68.9141 348.474 65.3733 346.557 62.4611C340.144 52.714 340.568 50.7264 350.25 45.186C361.297 38.8643 367.907 24.0701 364.577 13.1207C362.218 5.36613 355.7 1.376 345.25 1.28713C339.22 1.23621 337.095 2.22625 334.557 6.2673C333.188 8.44809 332.22 9.48607 331.555 9.48607C330.218 9.48607 328.552 7.24437 328.185 4.94924C327.608 1.35004 324.109 -0.384908 321.145 1.45888ZM34.75 2.02604C19.4525 6.45253 6.6345 19.8888 1.676 36.696C0.547001 40.5224 0.343001 42.1899 0.302501 47.9295C0.267001 52.9556 0.480001 55.4854 1.14 57.8789C3.836 67.655 10.618 75.4355 20.75 80.3758C32.5305 86.1198 43.973 86.5562 49.6045 81.4766C53.8965 77.6043 54.7985 73.4599 54.0095 61.2349C53.3895 51.6216 52.944 49.3859 51.187 47.0668C48.5785 43.6238 42.52 41.46 35.449 41.4465C32.3125 41.4405 31.352 41.6383 29.956 42.5774C27.7425 44.0672 26.903 45.7427 27.283 47.9125C27.885 51.3505 30.2995 53.2756 35.146 54.1838C39.384 54.9776 40.815 58.6757 37.98 61.5065C36.565 62.9194 36.2575 63.0098 33.54 62.8136C30.032 62.5605 26.175 60.4571 22.2675 56.6666C18.743 53.2477 17.311 50.1417 17.089 45.4332C16.686 36.8818 20.6055 28.2105 26.1515 25.3857C29.8875 23.4825 32.2835 24.7556 36.233 30.7438C39.582 35.8218 42.009 37.6406 45.42 37.6287C53.028 37.6017 58.597 28.2689 57.8775 16.7519C57.4535 9.96287 54.8925 5.457 49.9165 2.74399C46.338 0.793358 40.0415 0.495296 34.75 2.02604ZM171.172 1.48983C166.199 2.54129 163.056 5.2508 161.762 9.6004C160.289 14.5531 161.035 30.3394 162.988 35.5522C164.042 38.3641 166.649 41.2853 169.25 42.5684C170.075 42.9753 173.292 44.0123 176.4 44.8725C183.04 46.7113 185.398 47.8192 187.188 49.943C188.83 51.8927 189.211 53.374 188.814 56.2677C188.227 60.5389 185.485 63.4067 181.986 63.4067C179.557 63.4067 177.745 61.2219 176.407 56.6801C175.142 52.3864 173.736 50.6091 171.233 50.1402C167.232 49.3903 163.923 51.7204 161.965 56.6666C160.919 59.3087 160.778 60.491 160.765 66.6909C160.75 73.6337 160.768 73.75 162.25 76.1769C165.144 80.918 170.135 82.2809 185.387 82.4961C191.506 82.582 193.088 82.4502 194.75 81.7153C198.841 79.9054 201.69 75.9548 203.368 69.7649C204.004 67.4178 204.217 64.5021 204.231 57.9148C204.254 47.3968 203.381 43.6453 200.024 39.8369C197.349 36.8024 195.422 35.9886 188.421 34.9366C181.193 33.8507 179.148 32.9051 177.589 29.927C175.366 25.6802 177.216 19.5448 181.304 17.5976C182.99 16.7948 183.156 16.8013 184.886 17.7394C186.257 18.4818 187.151 19.6092 188.544 22.3491C190.882 26.9454 191.248 27.3673 193.219 27.7367C195.457 28.1556 198.25 26.8944 199.217 25.0272C200.316 22.9038 200.215 17.7614 198.997 13.9071C197.186 8.173 193 3.98466 187.273 2.17782C184.351 1.25568 174.307 0.826809 171.172 1.48983ZM75.957 2.47438C73.557 3.20032 72.0315 4.57929 70.7685 7.16348C69.6775 9.3962 69.475 10.6254 69.2365 16.4758C68.896 24.826 68.3325 30.0693 66.473 42.1879C63.2645 63.0972 64.1365 70.6456 70.4395 76.5324C79.3335 84.8392 94.5465 85.0798 103.485 77.0546C106.589 74.2682 109.486 68.6111 110.985 62.4082C112.125 57.6916 114.723 38.4559 115.496 29.0033C116.559 16.0165 113.806 5.67467 108.635 3.22428C106.146 2.04502 103.418 2.90575 100.693 5.73109C96.5265 10.0512 95.733 16.1398 97.502 30.2171C99.4295 45.558 98.192 51.8712 92.587 55.2912C88.8025 57.6003 84.843 56.1799 82.5295 51.683C81.4215 49.5286 81.2615 48.626 81.337 44.9429C81.427 40.5119 81.6575 39.5548 85.727 26.7107C89.5245 14.7234 89.45 8.36621 85.47 4.7755C82.773 2.34208 79.2275 1.48434 75.957 2.47438ZM380.504 3.58525C376.616 5.5893 374.643 9.8675 375.188 15.1153C375.643 19.4988 377.45 22.2183 380.733 23.461C382.327 24.0636 393.125 24.1989 395.382 23.6437C397.393 23.1495 398.956 22.0031 399.776 20.4205C402.917 14.3559 394.149 3.68161 385.22 2.69905C383.255 2.48287 382.291 2.66411 380.504 3.58525ZM346.816 17.658C348.831 19.6701 349 20.039 349 22.4175C349 25.846 347.942 28.207 345.102 31.1182C342.442 33.8447 340.624 34.9486 338.793 34.9486C336.881 34.9486 336.499 33.5976 336.511 26.8685C336.527 17.9291 337.781 15.5247 342.441 15.4922C344.37 15.4792 344.893 15.7379 346.816 17.658ZM266.944 24.2344C265.05 25.0532 264 26.6608 264 28.7407C264 29.4192 264.797 32.4383 265.772 35.4499C269.979 48.4427 270.537 60.7157 267.428 71.8688C265.081 80.2899 267.776 84.2391 276.634 85.3639C280.549 85.8612 293.958 85.2246 297.832 84.3574C305.031 82.7468 308.133 78.158 306.956 70.8603C306.365 67.1991 305.084 64.8311 303.239 63.9919C301.39 63.1506 300.282 63.25 295.336 64.7033C290.313 66.1786 288.095 66.0433 286.194 64.1451C284.464 62.4172 284.602 60.1845 286.553 58.3646L288.106 56.9163H294.836C298.537 56.9163 301.97 56.7001 302.465 56.436C304.723 55.2293 305.099 49.1432 303.083 46.4387C301.487 44.2973 299.962 44.0877 295.096 45.3398C289.914 46.6728 288.872 46.6918 286.25 45.5016C283.809 44.3927 282.875 43.3323 282.875 41.6707C282.875 38.5343 285.983 37.074 293.941 36.4709C300.813 35.9496 303.313 35.1178 303.798 33.1887C304.686 29.6569 301.445 25.4925 297.049 24.5154C295.785 24.2344 288.9 23.8804 281.75 23.7286C270.634 23.4925 268.488 23.5658 266.944 24.2344ZM383.25 30.6344C376.622 32.3409 372.715 35.9731 368.757 44.1121C365.821 50.1477 364.752 53.69 363.959 60.0007C363.372 64.6778 364.015 71.6321 365.349 75.0366C368.192 82.2924 374.206 86.0199 381.23 84.8786C392.61 83.0288 399.869 72.2966 402.299 53.727C403.321 45.9219 403.092 36.9656 401.805 34.3325C400.21 31.0713 398.147 30.2235 391.5 30.0987C388.069 30.0343 384.742 30.2505 383.25 30.6344ZM132.342 30.9385C130.201 31.3524 128.298 32.6125 126.81 34.6026C125.968 35.7279 125.743 37.1204 125.401 43.3088C124.856 53.1868 123.894 59.4276 121.771 66.8756C119.352 75.3606 119.485 77.7301 122.506 79.9679C123.859 80.9704 133.25 82.3788 138.581 82.3788C146.061 82.3788 149.848 80.0298 151.056 74.6402C152.494 68.2196 151.488 38.3052 149.719 34.8892C148.635 32.7958 146.76 32.0668 140.276 31.2181C137.071 30.7987 134.404 30.4812 134.35 30.5126C134.295 30.5441 133.391 30.7358 132.342 30.9385Z" fill="black"/>
</svg>